<svg xmlns="http://www.w3.org/2000/svg" style="opacity: 0.1" viewBox="0 0 1024 768"><g fill="none" fill-rule="evenodd"><path d="M883.0359 685.1717c5.127 2.638 9.919 2.636 14.962 4.689 5.005 2.038 6.31 10.487 10.59 11.496-19.841 2.087-39.383 6.51-59.465 4.311 1.739-7.086-1.384-14.338 2.799-20.987 11.184-10.581 18.455-6.023 31.114.491zM799.251 198.1616c.258 4.982.627 6.962 4.163 10.176 2.771 2.518 4.33-1.236 4.593 3.682.152 2.837-2.796 4.261-3.937 6.554-5.688 11.424-1.762 26.179 1.033 37.559 5.668 23.075 19.512 48.164 9.757 71.618-.983 2.365-1.773 7.492-3.673 9.303-2.505-1.324-4.334-.745-5.488 1.735-.692.778-1.384 1.556-2.076 2.333-4.384 4.054-9.05 5.561-14.869 3.406-11.732-4.343-13.672-17.969-13.733-28.696-.069-11.823 2.449-24.205 5.141-35.723 1.297-5.546 3.293-11.984-.423-17.216-3.51-4.942-7.846-2.156-11.302-4.362-3.679-2.348 1.62-19.605-2.005-24.181-6.329-7.99-8.534 11.556-8.635 15.548-.11 4.373.127 9.475 2.188 13.439 1.619 3.114 6.889 5.847 7.793 8.991.846 2.938-2.863 10.57-3.436 13.723-.882 4.858-1.189 9.821-1.442 14.745-.855 16.634 1.755 34.14 13.205 47.048 5.02 5.661 13.529 12.089 21.489 11.058 7.026-.91 14.087-4.704 20.64-7.282 4.407 16.93 11.027 33.326 18.08 49.314 6.13 13.898 11.893 28.132 18.333 41.86 13.572 28.935 35.602 53.584 52.815 80.338 16.618 25.829 25.937 55.469 28.172 85.962.528 7.21-1.578 17.077.102 23.819 1.575 6.321 2.957 9.066 1.926 15.959-1.146 7.66-3.366 14.724-2.412 22.518.846 6.915 4.141 17.218.54 23.624-4.327-4.61-8.644-6.78-11.268-12.929-2.665-6.24-1.616-11.368-7.656-14.11-5.16-2.343-8.861-1.833-13.414-5.668-5.531-4.659-9.3-10.353-12.025-17.023-4.651-11.382-5.324-23.721-1.392-35.41 3.153-9.372 12.362-26.916 25.273-20.636-1.918-3.939-3.194-8.221-6.853-10.78-3.186-2.229-7.95-2.955-11.508-5.49-3.978-2.833-8.481-5.857-12.921-7.929-1.724-.804-3.355-1.208-5.136-1.758-2.136-.659-6.187-.186-6.451-.226-7.626-1.153-16.13-4.824-20.787-10.356-3.505-4.164-6.603-8.051-9.279-12.816-3.474-6.184-4.811-5.81-11.476-7.279-9.686-2.133-15.832-3.588-23.58-10.774-8.593-7.97-14.881-17.902-21.169-27.681-3.684-5.73-6.922-6.08-12.926-8.368-3.491-1.329-8.325-7.283-11.503-7.725-.917-.128-5.311 1.872-6.797 2.111-2.656.43-4.962.353-7.623.074-6.106-.641-11.503-2.258-15.608-7.036-12.643-14.713-16.498-49.396.812-61.913 3.298-2.384 7.892-3.482 9.838-7.443 2.232-4.545 1.216-13.107 1.037-17.899-.203-5.469-.46-11.421-1.277-16.812-.376-2.478-.656-3.52-1.667-6.001-2.006-4.92-2.594-4.204-6.725-5.387-5.893-1.686-8.558-1.023-12.171-6.617-2.882-4.462-4.23-10.083-4.492-15.359-.244-4.922 1.976-9.471.122-13.929-2.714-6.524-7.746-11.462-9.953-18.602-1.86-6.013-6.662-19.434-1.928-24.982 2.121-2.486 5.888-2.85 7.991-6.177 3.664-5.793 5.144-8.961 10.582-13.527 4.012-3.369 7.865-8.389 12.701-10.449 4.756-2.026 9.245 1.235 13.106.341 4.209-.976 3.102-10.737 4.27-15.133 1.575-5.927 4.953-12.106 9.043-16.731 1.366-1.545 3.069-1.842 4.132-3.896 1.442-2.781.87-6.744 1.993-9.785 1.341-3.634 4.596-9.89 8.235-11.882 10.631-5.82 13.824 9.177 21.911 7.14zM774.3734 628.535c1.5 4.041.67 10.536 2.397 14.015 1.375 2.771 6.896 4.529 9.603 7.834 5.796 7.077 8.004 18.444 5.9 27.182-7.093-1.751-11.836-2.871-19.048-1.948-.728-15.837-.047-31.251 1.148-47.083zm-87.6657 11.936c4.826 5.382 7.22 11.724 6.523 18.918-.249 2.561-1.032 6.151-1.786 8.611-.829 2.7-4.949 7.755-3.35 9.202-4.502-.269-9.792.254-13.036-2.657-2.912-2.613-4.949-9.348-6.131-12.917 2.273-4.537 4.547-9.074 6.821-13.61 1.48 2.348 5.826 8.48 9.415 6.518 2.703-1.477.521-11.079 1.544-14.065zm169.382-41.9481c5.523 5.132 7.411 14.385 7.129 21.567.091 9.899-3.336 29.713-16.205 30.377-10.342.534-21.373-14.278-22.536-23.433-1.275-10.036 2.045-34.037 15.202-36.101 4.844-.76 12.919 4.345 16.41 7.59zm-92.4422 12.7994c.22 6.489.329 12.732-.186 19.199-.429 5.407 1.002 11.792-.208 16.969-7.651-8.56-17.73-17.881-17.424-30.463.288-11.894 10.142-10.882 17.818-5.705zM686.5364 468.317l6.404 7.02c.183 9.863-.012 19.615 2.991 29.125 3.16 10.007 8.455 19.651 13.697 28.699 10.19 17.586 12.62 34.173 13.848 54.285-19.164-8.586-29.615-37.924-35.938-56.276-3.348-9.715-6.82-19.439-9.978-29.215-3.114-9.641-8.618-22.238-4.995-32.394 6.962 5.118 9.973 7.756 13.971-1.244zm119.4185 69.2253c9.357 7.442 10.065 18.83 13.424 29.237-1.937 1.547-4.064 2.909-5.814 4.673-1.08 1.09-3.627 5.55-4.457 6.008-3.315 1.833-6.211-.52-9.45-3.476-6.376-5.823-10.356-18.181-10.057-26.727.349-9.982 7.406-16.832 16.354-9.715zm130.9269-43.7312c12.163 6.968 8.99 26.246 7.473 37.12-.952 6.816 1.158 13.75 1.011 20.234-.164 7.318-3.961 5.802-6.39 10.344-2.109-5.509-5.977-12.14-6.857-17.916l-1.398-3.654c1.184-.475 1.813-1.301 1.886-2.478.497-2.799.49-5.653.646-8.507.644-11.794 1.536-23.512 3.629-35.143zm-185.3139 13.019c-1.346 5.133-2.332 14.792-9.895 11.815-5.968-2.35-7.409-11.835-7.422102-17.122-.009898-4.34.704102-12.314 6.775102-12.574 7.452-.32 10.113 12.868 10.542 17.881zm-57.5705-142.9042c-5.031 8.058-8.523 19.961-6.146 29.502 2.495 10.019 10.256 12.444 17.159 5.072 5.697 8.969-5.982 24.942-16.424 16.414-2.257-1.842-3.772-5.369-6.563-6.518-2.288-.941-4.315.338-6.651-.193-7.186-1.633-9.9-8.691-12.723-14.615.775-4.829 1.596-9.616 2.641-14.397.556-2.542 1.135-5.08 1.698-7.621.957-4.317.659-3.778 3.789-5.918 8.255-5.64 13.933-5.919 23.22-1.726zm4.262 4.3493l6.038 13.428c-3.29-.793-6.874 9.08-9.023 11.004-1.005-8.216 1.402-16.442 2.985-24.432zm-3.3465-45.8637c5.46 2.3 6.546 12.268 6.739 17.09-1.501 5.076-2.903 11.57-9.248 7.995-4.234-2.387-6.049-10.246-6.193-14.539-.182-5.383 1.84-13.438 8.702-10.546z" fill="#fff"/><g fill="#fff"><path d="M654.0137 205.8037c-2.248 1.011 2.044 8.566 2.711 9.952 1.743 3.618 3.868 11.094 7.995 9.036-3.569-6.329-7.137-12.659-10.706-18.988m-528.0329996 438.345c-3.008-1.334-7.031 10.141-7.567 12.472-1.495 6.495-.244 10.858 4.955 15.057-2.152-9.282.426-18.527 2.612-27.529M820.3437 152.7617c-3.741-4.856-9.145-13.8719999-16.703-9.0989999-2.985 1.886-5.282 7.9309999-7.123 10.8839999-2.891 4.636-5.689 9.099-7.889 14.09 3.737-1.536 5.94-4.876 9.281-6.702 2.283-1.247 4.365-1.367 6.564-2.276 4.863-2.008 11.522-3.977 15.87-6.897m-609.917 478.45c2.024 7.922 3.896 15.821 5.462 23.845 1.059 5.43 4.618 13.101 2.761 18.414 4.811-.647 9.622-1.293 14.433-1.94-3.569-8.122-5.447-16.789-6.507-25.563-.649-5.37.183-6.901-3.863-9.889-3.133-2.314-8.649-3.426-12.286-4.867m-26.61-303.221c9.25 9.259 17.34 19.813 27.17 28.44 5.108 4.483 10.344 8.84 15.586 13.164 4.445 3.666 11.514 11.748 17.299 12.87.715-2.953 2.406-7.792 1.953-10.821 1.688-1.746 1.164-3.021-1.572-3.827-1.674-1.287-3.329-2.595-4.968-3.927-6.43-5.367-12.515-11.197-18.608-16.938-6.057-5.706-11.66-11.676-16.918-18.123-2.77-3.395-4.39-6.799-8.933-7.797-5.397-1.185-7.193 3.023-11.009 6.959m184.87 343.788c-.261 5.031 12.112 8.114 15.871 8.416 10.162.815 16.761-3.641 20.258-12.429 7.28-18.291 18.936-34.406 23.811-53.64 1.446-5.707 2.698-8.304-2.455-11.212-2.115-1.192-7.622-3.852-9.921-2.334-2.189 1.445-3.982 7.947-5.389 10.31-2.235 3.754-4.776 7.324-7.202 10.956-11.35 16.991-22.787 33.537-34.973 49.933m-146.841-251.9l47.504 27.163c1.981-6.839 2.892-13.969 4.749-20.862 1.322-4.899 4.723-11.819 4.508-16.12-.321-6.421-5.294-14.945-7.462-21.066-2.702-7.627-5.404-15.256-8.106-22.884-3.659 3.499-7.872 5.943-7.917 10.502-.025 2.606 1.712 4.232.705 7.184-.707 2.071-3.713 4.821-5.165 6.36-4.241 4.5-4.108 4.725-8.565.517-6.75 9.736-13.501 19.471-20.251 29.206m52.262 127.357c.68-6.544 1.553-12.818 3.025-19.239.905-3.945 4.727-12.046 3.47-15.762-.924-2.731-6.416-5.106-8.555-6.592-6.188-4.299-12.231-8.822-18.357-13.209-5.372-3.847-10.824-7.602-16.095-11.587-4.882-3.69-8.567-8.28-14.475-9.862-5.169-1.385-11.728-.481-17.082-.659-7.185-.239-14.481-.318-21.659.033-24.089 1.179-51.0749996-.506-74.2499996 6.213-10.953 3.175-18.014 5.044-24.137 15.419-7.081 11.999-13.131 24.467-18.282 37.428-.75199996 1.893-2.45199996 4.623-2.3888126 6.691.12581264 3.949 1.53881264 3.039 5.3258126 5.291 4.092 2.433 8.103 5.321 12.012 8.061 6.703 4.698 15.025 9.603 21.979 13.267 8.367 4.408 16.796 8.361 25.307 12.8 5.393 2.813 10.975 5.113 16.265 8.204 5.743 3.357 12.1729996 4.313 18.3639996 6.934 19.17 8.117 37.723 15.618 56.535 24.878 18.362 9.038 36.935 16.676 55.722 24.649 24.281 10.303 48.322 19.833 73.645 26.958 1.854.522 5.752 2.362 7.583 2.278 3.915-.18 4.802-3.041 7.154-6.265 4.622-6.336 9.074-12.793 13.495-19.269 9.589-14.049 18.966-28.254 29.29-41.782-29.255-8.163-56.381-23.224-82.098-38.681-1.095 3.077-1.967 9.894-5.477 10.923-4.34 1.274-7.493-4.739-9.438-7.504-1.841 4.584-4.991 20.046-10.883 19.708-8.141-.468-6.704-13.282-7.718-18.366-4.488 5.965-9.689 12.824-15.788 3.651-4.227-6.359-3.758-17.519-2.489-24.609m338.959-73.072c-3.772-1.179-7.52-2.227-11.21-3.548-.97-2.058-2.581-2.682-4.832-1.872-1.844.165-3.638-.063-5.381-.686-7.707-1.317-16.244-3.027-23.608-5.249-6.558-1.979-12.742-3.727-19.405-5.214-3.957-.882-21.581-5.869-24.186-2.934-.801.903.577 11.849.383 13.8-.345 3.469-.516 9.18-2.713 12.068-.843 1.108-4.053 2.336-5.213 3.199-3.769 2.803-7.252 6.286-11.001 9.192-8.186 6.345-16.159 12.929-24.512 19.066-5.903 4.337-12.66 6.484-19.217 9.635 4.665.835 13.794-3.655 18.503-5.047 6.099-1.804 12.084-3.809 18.322-5.461 12.79-3.387 25.894-7.21 38.893-10.816 7.983-2.214 16.416-4.521 24.155-7.453 3.433-1.301 6.128-4.325 8.396-1.247 1.809 2.457-.38 5.69-1.771 7.511-8.115 10.62-30.153 13.204-41.948 17.61-13.312 4.971-26.447 10.207-40.154 13.699-16.008 4.079-33.384 7.2-48.301 14.364-12.376 5.942-26.396 8.245-39.554 11.733-12.357 3.275-27.011 3.931-38.69 9.491 5.045 3.984 12.509 6.062 18.389 8.741 7.198 3.279 14.471 6.27 21.59 9.745 3.03 1.479 6.201 3.677 9.267 4.906 3.892 1.561 3.393.738 7.413.421 6.257-.492 14.699-1.617 19.782 2.939 6.131 5.495 2.246 11.515 3.146 18.238.618 4.609.932 3.87 6.05 4.574 4.711.647 9.417 1.402 14.064 2.409 5.737 1.244 11.609 3.33 17.197 5.128 8.665 2.789 9.607 6.071 18.639 2.471 25.723-10.252 52.328-18.679 78.215-28.38 11.924-4.468 23.899-13.087 35.123-19.562 14.4-8.308 27.42-17.295 37.17-31.127 4.444-6.304 9.078-16.953 8.144-24.78-.835-6.999-6.013-14.779-9.351-20.798-4.263-7.684-8.016-10.666-14.538-15.771-4.534-3.548-11.539-11.042-17.256-10.995m-286.473 59.479c.399 3.864-1.859 19.791.378 22.241 3.825 4.19 13.207-.7 16.837-1.948 11.792-4.054 25.498-3.167 37.506-6.377 11.649-3.114 23.043-7.149 34.757-10.321 6.284-1.703 12.248-4.371 18.429-6.398 6.881-2.257 14.562-3.494 20.943-6.889-.79-1.963-28.4 2.759-31.538 3.014-10.899.885-21.16-.796-31.902-2.771-23.694-4.358-46.019-14.692-69.407-21.396 1.096 10.786 31.45 12.934 27.834 25.451-1.009 3.489-14.588 9.192-19.079 7.003-9.124-4.449 2.037-10.71 6.585-12.271-6.923-3.969-13.548-8.275-19.867-13.166-6.765-5.236-9.676-12.582-13.302-20.162-7.579-15.848-25.515-25.067-39.447-34.933-15.065-10.668-31.106-19.737-46.162-30.381-2.687-1.9-3.942-1.028-4.886-4.497-1.01-3.715 2.701-8.436 4.502-11.269 4.734-7.45 10.248-14.501 16.502-20.737-8.065-5.489-16.777-10.02-24.34-16.233-7.666-6.298-14.01-13.986-20.773-21.196-10.804 23.509-25.946 45.313-37.8369996 68.368-4.697 9.106-7.18 22.879-.037 31.703 7.5169996 9.287 21.5339996 5.672 32.1449996 6.164 11.199.52 21.415 1.789 32.461 4.965 4.997 1.438 9.546 1.013 14.349 3.321 5.633 2.706 11.173 6.182 16.532 9.39 10.539 6.308 20.385 14.205 30.337 21.403 4.082 2.952 26.217 20.453 8.709 17.751 0 16.377-2.869 33.149-4.375 49.447 4.152-4.958 7.113-9.997 9.625-15.954 1.494-3.544 1.513-12.588 6.492-10.444 7.49 3.224 1.656 26.917 1.656 33.326 1.856-3.586 3.156-7.448 4.492-11.248 1.012-2.879 2.277-11.042 4.389-12.973 7.07-6.462 8.061 11.162 8.061 14.84 2.29-6.497 2.711-13.431 2.941-20.296.09-2.708-.579-6.922.105-9.542 1.138-4.367 1.003-4.082 5.576-5.928.27 2.98.54 5.962.809 8.943m218.405 138.207c.561 5.541 2.705 9.552-.938 14.536 7.042-.504 13.975-1.123 21.029-.944 5.663.144 14.133 1.439 19.417-.987 2.153-.988 2.885.713 3.992-1.175 1.051-1.794-1.418-7.748-1.715-9.225-1.424-7.088-2.118-14.359-3.412-21.491-.888-4.902-3.498-14.543-.217-19.175 4.826-6.816 6.951 2.786 8.208 7.049 4.141 14.045 3.902 27.384 3.902 41.815 6.237 0 14.431-2.724 20.446-4.367 8.297-2.267 17.157-4.597 25.196-7.557 7.582-2.791 14.259-6.864 19.053-13.42 3.586-4.904 11.536-17.003 9.561-22.425-2.421-6.648-13.967-11.219-20.133-11.95-8-.949-16.199.658-24.385 1.333-8.763.723-17.265 2.674-25.935 3.613-8.42.911-19.721 3.72-27.901 1.615-.213 3.365 2.601 7.888 3.581 11.314 1.285 4.492 2.432 9.024 3.475 13.577 1.117 4.874 8.031 22.396 1.743 25.899-7.381 4.112-10.904-13.496-11.823-17.788-2.192-10.234-4.076-20.459-1.781-30.747-9.421-1.698-20.783.824-30.499 1.493 3.62 12.75 5.955 26.103 9.136 39.007m-405.7749996 5.543c3.276 1.457 7.778.675 11.339.955 5.565.437 11.1869996 1.443 16.7889996 1.264 8.548-.272 17.509-1.353 26.064-2.331-4.88-8.801-7.841-17.134-8.45-27.221-.219-3.623-2.142-26.095 4.544-25.134 3.226.464 2.541 19.652 3.167 23.187.91 5.128 2.084 10.378 3.513 15.398 1.037 3.641 4.565 9.094 3.661 13.032 4.313-.699 8.627-1.398 12.941-2.097-3.354-6.687-5.804-12.68-7.06-20.139-.607-3.6-.22-8.08-1.397-11.499-.742-2.155-2.434-4.182-2.66-5.989-.261-2.085 2.023-7.208 1.178-9.06-.83-1.821-6.609-3.505-8.634-4.509-5.581-2.765-8.852-3.465-15.107-1.875-12.065 3.066-31.0739996 5.242-40.0719996 13.512-8.914 8.193-12.158 35.829.184 42.506M666.1417 278.0017c3.34-.377 6.646-.61 10.003-.783-4.905-6.902-9.36-14.116-13.427-21.542-1.993-3.638-3.875-7.334-5.677-11.07-2.069-4.287-2.012-7.086-6.506-7.938-6.223-1.179-14.546 1.177-20.948.909-4.946-.208-16.052-4.862-20.036-3.175 3.633 7.446.717 19.031.859 27.046.142 7.971-.848 15.676-2.251 23.536 8.487 0 19.11-2.93 27.677-4.239 9.974-1.524 20.144-1.603 30.306-2.744m-134.727 409.185c3.269-.419 6.377-.549 9.677-.549-7.435-12.053-13.049-25.532-13.112-39.894-.008-1.878 2.251-12.674 1.504-13.571-1.458-1.748-7.501-.368-9.157-.203-6.771.677-14.298.626-20.673 3.065-4.399 1.684-4.447.667-6.196 5.844-1.035 3.062-1.779 6.559-1.799 9.779-.042 6.507 2.033 14.112 4.715 19.97 2.554 5.577 6.589 11.558 12.139 14.553 6.394 3.453 15.404 1.398 22.902 1.006m67.601-447.779c-1.286-4.802-.73-3.718-5.005-4.314-.9-.125-10.692.078-11.255.652-.647.662-.4 10.439-.485 11.558-.29 3.835-.719 7.66-1.137 11.483-1.695 15.52-4.912 30.544-7.324 45.936 5.96-3.698 14.573 1.344 19.664-2.659 4.023-3.163 3.42-13.285 3.72-17.751 1.004-14.948 1.347-29.933 1.822-44.905m215.194-18.124l-1.608 2.583c2.081 1.334 14.263-12.237 16.972-14.665 3.608-3.233 9.318-7.55 10.945-12.277 1.891-5.493.031-14.165-.427-19.845-.327-4.065.368-9.687-2.946-12.527-3.05-2.613-10.564-2.543-14.176-1.984-10.84 1.678-17.359 10.592-22.831 19.086 5.556-.683 25.143-9.625 27.418-4.789 3.305 7.026-17.266 13.308-19.3 19.473 4.211 1.487 13.499-4.281 10.886 5.316-.446 1.343-1.224 2.455-2.332 3.336-1.923.681-2.378 1.964-1.366 3.85-.861 3.759-.685 8.515-1.235 12.443m124.766 340.226c.058 2.278.267 4.456 2.129 6.066 4.13-13.079 5.42-26.164 7.131-39.765 1.712-13.604 3.534-27.546 3.805-41.138.304-15.233-1.135-31.804-3.599-46.854-1.927-11.766-3.419-26.244-10.434-36.258 3.984 25.951 2.745 50.555.059 76.597-1.426 13.828-3.439 27.549-4.362 41.437-.244 3.668-.323 7.38-.641 11.041-.188 2.157-2.324 6.244-2.343 7.303-.105 5.879 6.189 16.172 8.255 21.571m-211.957-20.212c3.313 7.623 7.08 15.132 9.067 23.239 2.097 8.56 1.194 16.532 1.53 25.206.557 14.391-.597 28.697-.395 43.109.172 12.283-.299 24.259-.176 36.412.078 7.688-.343 15.347-.317 23.031 0-.023.306 6.897-.223 7.248-2.373 1.576-4.966-.662-5.693-2.817l-7.034 7.958c3.687-.926 8.221-2.861 12.011-3.032 1.451-.534 2.896-.549 4.336-.045 1.429.864 2.488 2.068 3.177 3.614 9.931 2.115 15.891-6.724 17.675-14.627 3.869-17.147 2.475-34.076 2.194-51.387-.608-37.608 5.367-74.991 4.802-112.602-.109-7.278-.387-14.471.707-21.735 2.03-13.495 5.028-1.142 5.509 5.227 1.446 19.138 3.964 38.886 2.579 58.142-1.246 17.351-1.131 34.862-1.995 52.265-.919 18.497-2.399 36.602-1.547 55.114 4.967-.635 20.944-1.582 22.608 5.396 1.451 6.086-4.388 3.834-7.421 3.577-4.918-.417-9.722.737-15.098-.227.396 8.186 1.525 19.164-5.79 24.691-3.598 2.719-9.557 5.173-13.761 6.776-4.12 1.572-11.098 5.054-15.39 4.863-3.037-.135-4.207-1.77-7.539-1.509-4.944.389-9.224 3.696-14.465.964-9.94-5.181-5.054-20.25 1.222-26.289 1.618-1.558 3.437-3.261 5.608-4.02 1.032-.361 5.351.075 5.849-.466 1.838-1.995-.457-13.665-.702-15.88-1.289-11.618-2.693-23.483-3.222-35.153-.497-10.972-1.05-21.966-1.428-32.942-.082-2.39.978-7.304-.023-9.393-1.665-3.472-8.97-5.682-12.139-7.299 2.824 27.662 6.973 57.394-3.249 83.742-2.03 5.232-4.307 12.7-9.454 15.61-4.851 2.744-16.275 2.357-22.087 2.683-6.25.35-12.368-1.109-15.812-6.978-2.709-4.618-1.085-10.158 4.478-12.172 3.331-1.205 3.98-.43 6.898 1.003.633 1.028 1.077 2.133 1.334 3.315h2.243c3.04 1.356 15.19 2.873 18.531.709 3.872-2.505 4.714-9.28 6.365-13.305 3.066-7.479 3.878-13.548 4.991-21.542 1.742-12.512-.022-27.02.011-40.056.009-3.671.025-7.343.03-11.014.007-5.545.49-5.511-2.674-9.503-4.768-6.016-10.204-12.164-15.308-17.931 2.765 16.849 1.633 34.589.535 51.375-.616 9.431-1.892 19.035-2.477 28.341-.176 2.796 1.833 10.506-1.414 11.742-3.295 1.254-7.396-4.596-8.727-6.708-7.264 14.495-15.934 28.476-30.921 35.975-7.706 3.856-15.73 5.595-24.14 7.107-7.791 1.402-14.991 3.958-22.672 5.164-15.898 2.495-30.541 2.848-46.539 2.303-15.093-.514-29.545 2.273-44.59-1.236-5.872-1.369-11.805-3.884-15.819-8.379-2.19-2.453-3.159-6.314-5.368-8.575-.498-2.926-2.219-3.828-5.165-2.708-1.85.083-3.693.022-5.529-.184-15.09-.792-31.86.091-46.482-4.219-5.55-1.636-11.746-4.331-8.977-11.277 2.42-6.071 9.098-4.227 14.574-3.697 15.907 1.541 31.565 4.352 47.701 5.767-.519-8.431-.072-17.032 3.233-24.919-11.194-1.405-22.799-3.524-33.45-7.098-3.289-1.104-6.563-2.251-9.826-3.431-5.378-1.945-4.26-2.448-7.375.946-3.914 4.264-6.31 13.161-9.146 18.313-3.191 5.798-6.253 11.53-8.942 17.582-2.545 5.728-4.443 13.4-8.321 18.336-8.53 10.858-28.231 11.799-39.825 7.534-5.679-2.09-7.729-2.418-11.171-7.508-3.771-5.576-4.708-5.902-11.655-6.659-12.545-1.367-24.385-4.516-36.137-8.864-12.416-4.593-25.165-8.174-37.545-13.133-11.589-4.643-22.79-9.313-34.781-12.937-1.423 9.044 4.473 19.243 4.473 28.567 6.977-.698 13.483-1.31 20.399-2.42 2.466-.396 18.003-3.882 19.519-1.825 6.319 8.576-22.433 12.61-26.927 13.743-14.401 3.634-29.086 7.011-43.578 9.82-14.792 2.867-29.212 5.722-44.228 6.237-25.4089996.871-60.4559996-.597-59.2429996-33.98.476-13.081 5.865-27.277 16.177-35.808 6.416-5.308 14.417-8.226 22.261-10.628 2.898-.888 18.1649996-2.962 18.6289996-4.104-4.302-3.083-11.6549996-3.887-16.7589996-6.263-4.866-2.266-10.001-3.11-14.982-5.394-9.953-4.563-19.566-10.141-28.769-15.783-7.319-4.488-14.719-9.443-21.457-14.778-5.354-4.238-10.485-8.314-14.765-13.158-2.23999996-2.535-6.20499996-4.78-7.99899996-6.963-6.3-7.667.344-22.923 3.027-31.849 3.919-13.047 9.14899996-26.93 16.86199996-38.232 7.093-10.394 15.001-17.396 27.724-19.831 11.743-2.247 23.551-2.959 35.561-3.59-2.018-7.677-4.859-13.095-4.138-21.515.68-7.942 4.69-15.833 7.837-23.066 5.851-13.445 11.3709996-26.605 19.3729996-38.984 4.398-6.803 9.338-13.261 14.139-19.78.774-1.051 5.586-5.859 5.402-7.213-.183-1.346-5.015-5.444-5.755-6.383-4.969-6.308-8.404-13.1-2.569-19.851 3.042-3.52 11.986-10.628 16.291-6.156 4.655-9.406 12.797-15.819 19.136-23.821 7.903-9.978 15.449-20.108 22.847-30.559 7.366-10.406 13.383-21.585 23.147-29.971 10.881-9.345 21.124-8.537 34.488-4.542.763-5.155 1.824-4.469 6.81-6.19 3.774-1.303 7.442-2.849 11.153-4.32 3.944-1.565 7.936-2.453 11.968-3.683 5.371-1.638 6.178-1.103 7.051-8.078 1.056-8.428-2.551-17.339-4.877-25.278-1.148-3.917-1.946-8.793-4.529-11.428-2.337-2.383-6.48-3.468-9.036-6.103-22.022-22.7009999-22.369-71.1709999 1.089-92.2689999 4.559-4.101 8.319-9.618 13.994-12.38699999 6.231-3.041 14.45-5.5 21.313-6.933 14.146-2.952 30.011-2.015 41.193 7.929 5.515 4.90399999 8.878 12.69899999 10.758 19.66199999 1.796 6.651 1.411 17.893-5.397 7.614-4.293-6.483-8.023-13.095-15.29-16.302-6.494-2.865-14.424-4.412-21.499-3.804-16.674 1.432-30.186 6.328-41.728 18.669-12.762 13.645-13.411 35.43-10.66 52.781 2.424-5.132 4.066-13.258 10.862-14.238 5.664-.817 14.593 6.415 11.553 12.641-13.793-3.516-17.827 17.3419999-5.9 18.5979999 3.611.38 8.184-6.0479999 11.509-4.551 6.218 2.798-2.115 12.44-3.758 15.615-.873.537-1.746 1.074-2.619 1.612.86 1.998 1.728 3.993 2.605 5.984 1.063 2.539 2.075 5.084 3.009 7.674 2.273 6.303 4.63 12.802 6 19.368 1.392 6.676 2.115 14.472-1.176 20.744-3.617 6.894-7.024 6.046-9.803-.512-7.274 4.585-14.588 9.474-23.139 11.283 8.967 15.044 20.575 27.977 38.029 32.709 14.793 4.011 33.414 3.864 47.529-2.771 14.647-6.885 22.707-22.977 20.963-38.987-.565-5.185-3.583-23.195 3.596-10.167 3.937 7.145 4.226 18.735 3.328 26.57-4.293 37.478-42.284 51.499-75.043 42.477-16.805-4.629-28.915-17.019-37.931-31.604-2.103-3.401-4.027-6.911-5.906-10.44-.751-1.41-1.412-3.379-2.414-4.616-3.927-4.847-.069-2.146-4.238-2.753-6.452-.938-16.605 4.003-21.396 7.918-12.999 10.621-20.199 27.611-30.176 40.997-10.622 14.25-24.112 26.933-37.644 38.303 15.307 15.679 30.613 31.356 45.92 47.034 3.162-3.5 9.173-11.5 10.014-16.18.493-2.743-1.72-11.771 5.086-7.753 4.595 2.714 6.338 14.327 7.771 19.078 2.214 7.338 5.942 14.248 8.352 21.51 4.47 13.474 9.977 26.829 14.556 40.399 1.862 5.518 7.171 12.366 2.07 17.038-7.753 7.098-10.058-6.877-12.111-12.216-2.859 3.975-2.488 10.42-3.962 15.056-.9 2.832-3.641 7.24-3.55 10.03.155 4.771 4.486 6.191 8.389 8.857 7.261 4.96 14.712 9.802 21.363 15.579 2.775 2.41 5.328 4.848 7.353 7.948 1.768 2.707 2.3 8.809 4.254 10.693 2.556 2.462 12.004.746 16.993 1.282 8.331.896 16.774 3.859 24.862 5.988 14.312 3.766 29.032 9.189 44.021 11.201 14.72 1.976 28.533.995 43.204-1.637 8.014-1.438 16.621-3.156 23.934-7.01 8.423-4.438 15.892-11.538 23.76-16.9 3.521-2.4 7.123-4.669 10.724-6.944 4.812-3.04 3.554-2.382 3.867-7.212.363-5.591 2.697-16.267-1.037-21.243-1.56-2.077-6.345-3.596-8.598-5.107-3.275-2.199-6.212-4.753-9.722-6.522-3.832-1.931-3.945-.402-5.723-5.139-1.616-4.302-2.682-8.808-4.165-13.155-6.786-19.883-8.539-40.076-11.351-60.837-1.307-9.643-4.512-22.765-.882-32.159 5.048-13.065 9.272 5.207 10.337 9.89 4.819-8.254 7.588-17.434 12.601-25.583 2.923-4.751 4.353-7.179 6-12.385.667-2.108.934-3.859 2.344-5.61 2.983-3.704 3.424-1.593 6.525-1.684 9.757-.286 19.347-.035 29.113.417 5.397.25 10.795.382 16.23.362 2.648-.01 5.328-.139 7.974.013 1.426-.015 2.845.091 4.257.319 2.914 1.36 4.026.188 3.337-3.517 2.537-5.307 2.368-13.775 3.266-19.565.904-5.828 1.742-11.666 2.498-17.516.403-3.127 3.793-14.926 1.994-17.495-1.783-2.547-11.074-1.976-13.823-2.433-18.276-3.038-35.276-10.569-52.37-16.739-8.416-3.037-16.404-7.138-24.476-10.864-4.202-1.94-8.173-5.935-12.602-7.179-5.589-1.57-13.009.94-18.58 1.885-10.614 1.801-20.853 3.378-31.623 3.964-3.805.207-11.043 1.274-14.476-1.341-6.896-5.252.956-8.323 5.463-8.986 19.937-2.932 39.813-4.617 59.902-5.841.942-.057 4.392-.758 5.54-.396 2.616.826 1.561 1.784 3.129 2.636 2.904 1.578 6.218 2.74 9.903 3.719 10.521 2.794 21.115 7.482 31.671 11.166 18.994 6.628 41.687 17.196 60.683 15.338 4.688-.458 8.543-1.044 13.444-.569 5.74.557 9.09 3.501 13.5 4.357 5.908 1.146 14.359.285 20.578.505 5.93.21 11.864.485 17.797.485-5.21-10.476-8.383-20.312-11.311-31.563-1.597-6.136-4-11.709-2.959-18.171.492-3.05 1.711-5.916 3.04-8.671 2.006-4.159 2.576-3.289 3.288-7.895.98-6.339-.425-13.0229999.345-19.3809999.79-6.525 5.721-12.341 6.27-18.579.293-3.319-1.564-6.028-1.008-9.608.497-3.202 2.393-6.559 4.096-9.255 3.966-6.282 8.796-9.844 15.498-12.403 5.387-2.057 12.263-3.944 17.707-.613 5.554 3.398 5.153 10.237 7.814 15.227 5.722 10.73 18.924 20.319 29.448 25.799 9.668 5.034 20.083 8.214 30.449 11.497 6.309 1.998 12.796 3.423 18.996 5.7059999 4.463 1.644 11.741 5.631 16.286 3.209 3.961-2.111 8.581-8.5529999 12.501-11.5439999 4.587-3.499 10.704-6.914 16.479-3.866 5.775 3.047 5.301 14.2789999 9.793 16.3909999 1.565.736 6.213-1.42 8.347-1.08 3.446.548 5.819 2.681 7.885 5.307 7.716 9.813 10.106 25.378 10.443 37.475.169 6.042.022 13.557-3.668 18.687-4.304 5.984-12.45 6.132-17.975 10.343-4.419 3.368-7.55 8.874-12.035 12.463-2.763 2.212-3.829.513-4.973 3.96-.745 2.242.76 6.616 1.204 8.785 2.747 13.382 7.892 25.725 12.774 38.473 2.3 6.007 4.251 12.015 5.301 18.381.688 4.177-.106 7.829.227 11.848.236 2.861 1.453 5.332 1.185 8.266-.567 6.213-3.941 11.701-6.087 17.166-2.446 6.23.914 17.019 3.378 23.462 5.904 15.436 14.207 31.031 21.584 45.862 7.246 14.569 12.636 30.084 21.078 44.08 8.199 13.592 17.846 26.901 27.175 39.756 5.189 7.151 10.695 13.953 15.398 21.453 1.028 1.64 8.046 15.241 9.866 14.77-2.232-23.735.025-48.42 1.023-72.139 1.248-29.691-2.531-56.586-10.886-84.928-1.953-6.626-3.694-13.406-5.068-20.177-.962-4.741-3.678-8.637 2.989-6.564 11.039 3.431 20.755 24.271 26.368 33.342 12.569 20.317 23.068 47.411 24.477 71.241 1.383 23.39.19 45.77-2.733 68.815-1.443 11.369-3.773 24.043-7.335 34.916-1.832 5.593-4.032 11.386-6.472 16.745-1.03 2.262-3.291 4.818-3.682 7.303-.618 3.943 2.271 9.263 2.994 13.157 2.362 12.741 2.905 25.945 2.1 38.875-.431 6.935-1.389 13.137-3.652 19.659-2.883 8.309-1.543 14.656-.343 23.221 1.284 9.166 2.514 30.001-7.017 35.209-.673-.069-1.348-.139-2.022-.208-1.703-1.963-3.215-1.847-4.535.35-2.465.804-4.873 2.875-7.469 3.766-6.025 2.069-12.526 2.195-18.81 3.104-12.299 1.781-24.557 4.922-36.641 5.302-14.308.45-29.234-.111-43.224-2.619-2.892-.519-6.272-1.89-9.164-2.153-3.925-.357-6.68 2.253-10.732 1.639-6.28-.951-10.248-7.597-10.659-13.043-1.308-17.354 8.32-25.312 24.054-28.394-10.167-14.555-21.872-26.496-24.577-45.189-2.663-18.392 3.112-39.678 13.601-54.413 10.068-14.145 27.248-23.602 44.965-20.013 8.223 1.666 47.016 13.119 39.517 26.111-1.663-5.943-11.89-4.793-16.831-5.651-8.198-1.424-16.394-3.571-24.711-3.129-16.358.87-32.168 10.546-40.089 25.193-9.132 16.887-4.965 33.739 6.029 48.157 10.052 13.183 20.415 27.033 33.933 36.552-2.613 4.155-1.668 5.459-6.859 4.715-3.564-.511-6.898-3.29-10.5-3.982-7.469-1.434-19.225 4.686-23.84 10.806-2.727 3.616-2.626 5.403 2.402 7.63 3.71 1.643 9.552.794 13.537 1.15 9.913.885 20.017 1.181 29.962 1.146 17.215-.063 33.225-2.825 50.262-4.613 7.551-.793 15.448.121 22.836-2.658 10.007-3.763 7.555-14.816 6.258-23.77-1.285-8.869.023-15.748 1.417-24.531.604-3.815 1.732-8.219.933-12.059-.948-4.562-2.649-6.581-2.432-11.669.772-18.107-1.5-37.176-6.299-54.652-10.423-37.957-35.875-67.914-57.102-100.175-5.995-9.112-12.298-17.746-17.071-27.614-4.521-9.349-7.635-19.237-12.125-28.612-9.896-20.663-19.283-41.948-25.066-64.174-6.554 2.579-13.615 6.373-20.641 7.283-7.96 1.031-16.469-5.397-21.489-11.058-11.449-12.908-14.06-30.414-13.204-47.048.253-4.924.559-9.887 1.441-14.745.573-3.153 4.282-10.785 3.437-13.723-.905-3.144-6.175-5.877-7.793-8.991-2.062-3.964-2.299-9.066-2.189-13.439.102-3.992 2.306-23.538 8.635-15.549 3.625 4.577-1.674 21.833 2.005 24.182 3.311 2.113 7.871-.469 11.303 4.362 3.708 5.221 1.722 11.656.422 17.216-2.687 11.498-5.21 23.914-5.141 35.723.061 10.753 1.983 24.347 13.733 28.696 5.936 2.197 10.442.686 14.869-3.406 1.015-1.168 2.05-2.317 3.105-3.448.969-1.665 2.455-1.872 4.459-.62 1.483-1.178 3.681-9.318 4.423-11.137 9.1-22.3-5.247-47.904-10.507-69.784-3.217-13.383-6.022-26.807.49-39.723 1.054-2.091 3.958-3.908 2.216-6.908-.459-.789-4.843-1.159-5.881-2.076-3.382-2.985-2.677-8.55-2.677-12.535-7.821 2.412-10.075-3.673-9.058-11.131-5.834.925-9.886 2.709-12.046-4.041-1.915-5.986.977-12.09 2.896-17.668-26.993-2.893-56.146-6.6-77.658-25.2259999-5.304-4.593-9.715-10.374-13.391-16.363-.664-1.083-3.792-8.707-4.829-9.105-3.081-1.183-5.666 4.845-8.404 6.338-2.434 1.326-5.894 2.057-8.598 2.865-2.545.761-11.516.913-13.107 2.234-3.978 3.304-3.664 22.405-3.695 26.8379999-.108 15.268 3.3 30.483 9.603 44.384 5.936 13.092 15.019 31.096 26.892 39.664 3 2.166 5.701 3.289 9.503 3.11 2.716-.127 5.409-2.029 8.237-1.04 7.157 2.504 4.597 7.479-.905 9.831-15.726 6.726-28.98-8.06-38.074-18.39-2.663 12.256 9.685 26.759 16.219 36.759 4.163 6.373 8.279 12.752 12.24 19.255 2.876 4.723 8.529 13.445-1.512 9.797-4.844 25.422-18.138 47.655-24.927 72.36-6.97 25.36-13.045 54.317-13.045 80.727 5.307-3.694 7.983-20.529 15.121-7.644.772 1.394.53 3.701 1.548 4.919 1.408 1.685 3.102 1.217 5.259 2.418 3.42 1.903 5.626 5.697 2.569 8.987 3.938-.916 8.062-.449 8.911 4.208.476 2.614-3.352 14.723-6.208 15.712-8.707 3.014-18.361-14.368-20.719-19.897-5.439 5.459-11.706 9.658-16.719.828-3.736-6.58-1.568-16.535-1.041-23.698 1.062-14.43 2.448-28.505 4.53-42.796 3.904-26.798 13.813-50.631 25.984-74.752 3.351-6.639 7.064-13.435 10.057-20.228 4.514-10.249-2.549-7.831-9.453-6.343-13.526 2.917-27.689 5.18-41.356 6.213-7.134.539-16.27.86-23.125 2.922-4.82 1.45-3.993.449-5.929 5.611-.866 2.31-1.843 4.767-3.37 6.745-7.788 10.092-27.96 8.403-39.1 7.651.675-4.256 1.342-8.514 2.042-12.766-8.576 2.015-18.762 3.418-27.594 3.315-4.755-.054-9.812-.779-14.555-1.174-3.497-.291-10.127-2.77-13.418-1.806-3.816 1.119-9.587 14.916-11.769 19.365-4.097 8.355-11.418 17.637-14.003 26.434-2.292 7.799 2.385 21.255 3.854 29.018 2.123 11.222 4.058 22.465 7.616 33.346 2.58 7.889 5.553 18.764 13.474 22.699 7.892 3.922 13.564 6.128 22.106 5.33 15.042-1.406 31.045.903 45.895 3.827 15.292 3.011 29.295 4.367 43.816 9.733 32.935 12.173 53.908 49.671 41.49 84.023-7.142 19.758-18.908 34.442-36.168 46.665-8.795 6.229-19.186 11.282-28.828 16.082-4.427 2.204-8.779 4.878-13.291 6.836-3.297 1.431-8.964 4.725-12.546 5.086 3.976 1.891 7.494.12 11.631-.467 5.853-.833 11.83-1.011 17.704-1.737 9.144-1.132 18.152-1.986 27.299-3.121 7.807-.969 16.616-1.313 24.375-.197 3.748.539 9.389 1.603 12.727 3.409 2.625 1.42 5.032 4.692 7.855 6.313 3.105-12.751 1.653-28.469 1.798-41.572.119-10.696.596-21.156 1.603-31.802 1.127-11.907-6.157-25.448-8.847-37.11-2.517-10.915-9.223-24.748-6.755-36.141 3.113-14.361 11.26 11.438 12.38 15.127 3.507 11.541 7.578 22.807 11.464 34.212 4.623 13.567 9.281 26.713 16.014 39.426 5.603 10.579 12.042 22.989 23.557 28.149-.95-15.558-2.005-29.963-8.473-44.307-6.133-13.602-15.486-25.698-19.575-40.273-2.031-7.243-2.329-14.65-2.43-22.131-.068-5.033.163-11.799 5.561-6.372 4.281 4.303 5.112 18.029 6.986 23.823.903 2.788 2.153 5.348 3.15 8.06.449 1.221 3.472 7.172 3.472 7.97 3.117 9.405 10.008 18.426 14.851 27.081"/><path d="M396.4585 198.4263c.297 3.643 2.41 13.085-.296 15.968-3.587 3.825-5.287-1.095-6.838-4.974-3.242-8.106-4.853-23.803 1.553-30.558 6.688-7.054 19.902-7.244 27.039-14.269 2.865-2.822 2.59-2.233 2.34-6.645-.141-2.491-1.752-5.801-2.531-8.04-2.025-5.8179999-4.246-11.5659999-6.364-17.3499999-3.701 1.687-9.027 6.891-12.673 2.529-3.37-4.033 2.237-10.641 6.142-11.82-2.039-4.457-11.644-3.633-13.474-10.18-1.59-5.69 2.978-3.429 3.977-5.67 1.176-2.637-1.232-6.202.007-8.632 4.301-8.437 9.064 7.076 11.206 9.845 3.985 5.15 10.927 6.275 11.538 14.065.377 4.796.016 7.026 1.992 11.736 1.819 4.336 3.981 8.494 5.507 12.9559999 2.297 6.723 5.839 18.958 1.35 25.468-3.786 5.491-12.979 9.677-18.957 12.025-2.994 1.175-7.145 1.891-9.567 4.18-3.161 2.986-2.177 4.821-1.951 9.366M707.0576 401.7232c-.682-1.074-1.365-2.148-2.047-3.223-4.731 5.053-9.97 7.13-14.751.711-4.924-6.608-3.075-16.517-1.16-23.734.985-3.714 5.968-18.357 9.16-7.202.704 2.462-1.651 7.944-2.077 10.354-.838 4.728-1.498 9.263-.908 14.078 5.546-4.964 8.262-17.549 13.891-4.481 2.041 4.739 2.265 12.543 7.699 5.345 2.901-3.844 3.087-10.94 4.445-15.469 9.263 2.215 7.575 15.913 4.483 22.587-4.924 10.627-11.623 7.205-18.735 1.034M739.4902 163.3325c3.295 5.495-2.938 15.544-4.067 21.186 5.519-.639 19.178-13.952 23.022-11.757 8.003 4.568-8.902 20.5-12.15 22.835-25.959 18.658-21.279-35.313-6.805-32.264M706.938 224.5254c9.698-2.7 22.776 14.706 16.485 23.326-4.513 6.183-10.089 2.647-11.503-2.796-.72-2.776-.081-6.121-1.024-9.217-1.16-3.812-2.715-7.525-3.958-11.313"/><path d="M408.6465 149.4981c7.376 6.199-7.695 21.312-15.25 9.478-2.078-3.255-2.456-6.226.625-7.428 1.556-.606 5.225 1.379 7.421 1.028 2.407-.385 5.022-2.078 7.204-3.078M383.3032 124.7100001c-2.862-3.57-10.905-25.53-.938-20.639 5.005 2.456 9.141 21.229.938 20.639M712.3833 597.022c-.283-2.771-.566-5.543-.849-8.315 3.68 1.877 11.064 3.73 12.345 7.931 2.406 7.892-8.768 1.579-11.496.384M819.2109 262.7579c-2.192-2.961-9.009-27.66-3.095-27.095 1.036 8.96 1.249 18.265 3.095 27.095M727.0186 541.2974c-4.843-8.654-11.734-17.675-14.851-27.081 7.306 5.916 13.014 18.002 14.851 27.081M925.6387 521.2349c.295 3.137.59 6.273.885 9.409-4.388 1.133-1.154-8.374-.885-9.409"/><path d="M712.1772 514.231c-2.077-2.261-2.966-5.041-3.481-7.984 1.16 2.66 2.32 5.322 3.481 7.984M737.2954 656.2315c.077-2.791.154-5.582.231-8.366-.077 2.792-.154 5.579-.231 8.366M409.1768 203.3745c1.858.231 3.717.462 5.576.693-1.467.687-4.923 1.6-5.576-.693M779.7832 685.524c1.934-.292 3.874-.957 5.774.113-1.928-.037-3.851-.075-5.774-.113M724.5308 622.4727c.026 2.067.052 4.134.075 6.194-.027-2.069-.051-4.131-.075-6.194M764.4854 590.3077c-.122 2.205-.244 4.409-.365 6.609.122-2.206.243-4.407.365-6.609M738.1792 598.9351c-.105-1.918-.21-3.836-.314-5.75.105 1.919.21 3.835.314 5.75M795.6387 615.8565c-.104 1.708-.207 3.417-.311 5.121.104-1.71.207-3.416.311-5.121M448.459 659.0137c-1.881.948-3.761 1.042-5.636-.012 1.88.004 3.758.008 5.636.012M640.9868 142.8067001c.026 1.689.053 3.3779999.079 5.0599999-.028-1.691-.054-3.3749999-.079-5.0599999M454.1938 188.8897c-1.927.146-3.854.291-5.779.437 1.926-.146 3.853-.291 5.779-.437M852.1064 195.3897c-.01-1.667-.02-3.334-.028-4.998.884 1.664.901 3.329.028 4.998M396.4585 198.4263c-.088-1.771-.176-3.541-.263-5.309.089 1.772.176 3.54.263 5.309M869.8096 721.6329c1.301.009 2.603.018 3.892.027-1.306-.009-2.599-.018-3.892-.027M357.7305 46.2979001c-1.711.146-3.422.292-5.133.437 1.711-.145 3.422-.291 5.133-.437M526.4883 699.5992c1.103-.001 2.206-.002 3.296-.001-1.107.001-2.201.001-3.296.001M697.3584 236.7901c-1.673-.167-3.346-.335-5.018-.503 1.673.168 3.346.336 5.018.503M773.4043 696.6797c.103-1.379.205-2.758.308-4.131-.103 1.381-.205 2.756-.308 4.131M592.3076 219.1338c-1.647-.015-3.294-.029-4.94-.043 1.655-.958 3.299-.684 4.94.043M372.5444 46.7588001c-1.66-.053-3.415.81200001-4.945-.504 1.649.168 3.297.336 4.945.504M327.7075 209.5108c-1.591.146-3.183.292-4.773.437 1.592-.146 3.182-.291 4.773-.437M427.9487 657.5845c-1.676.175-3.353.35-5.027.525 1.676-.175 3.352-.35 5.027-.525M469.6704 187.8804c-1.634.035-3.269.07-4.902.105 1.621-.649 3.243-1.261 4.902-.105M737.2349 634.9766c-.009-1.417-.019-2.834-.028-4.248.009 1.418.019 2.833.028 4.248M926.2393 514.8169c-.176 1.713-.353 3.425-.528 5.138.175-1.712.352-3.425.528-5.138M714.1558 625.2173c-.122-1.458-.243-2.916-.364-4.37.121 1.459.243 2.915.364 4.37M164.3628 611.8228c-.299 1.454-1.359 1.74-3.18.858l3.18-.858zM775.1719 612.4693c-.098-1.267-.194-2.534-.29-3.798.098 1.268.193 2.533.29 3.798M432.709 190.9326c-1.375.187-2.751.373-4.126.56 1.376-.187 2.751-.373 4.126-.56M723.7031 601.6705c-.002 1.244-.004 2.488-.007 3.728.003-1.246.005-2.487.007-3.728M640.7397 155.0825c.001 1.177.002 2.353.003 3.524-.001-1.178-.002-2.351-.003-3.524M139.0752004 430.75c-.136 1.24-.272 2.481-.407 3.716.136-1.242.271-2.479.407-3.716M963.0098 516.0015c-.073-1.168-.146-2.336-.219-3.498.073 1.17.146 2.334.219 3.498M252.6411 670.1534c-1.421-.023-2.842-.045-4.263-.068 1.438-.985 2.855-.774 4.263.068M418.1196 124.4492001c-.023-1.171-.046-2.342-.069-3.509.73 1.159.964 2.323.069 3.509M304.6602 109.5972001c.099-1.155.198-2.31.296-3.458-.099 1.157-.197 2.307-.296 3.458M774.335 513.9141c-.049-1.273-.099-2.546-.146-3.817.049 1.274.097 2.546.146 3.817M765.1875 579.6788c-.035 1.201-.07 2.401-.107 3.595.034-1.203.071-2.399.107-3.595M601.6289 695.4629c.891-.002 1.781-.004 2.661-.003-.893.003-1.777.003-2.661.003M168.335 696.0713c.889.024 1.777.048 2.655.073-.892-.024-1.774-.048-2.655-.073M705.8135 590.7017c-8.667-6.697-16.223-16.712-17.982-27.434 3.727 4.211 6.86 8.91 10.588 13.118 1.482 1.671 3.299 3.111 4.721 4.813 3.244 3.883 2.673 4.055 2.673 9.503M675.3662 545.4327c-4.16-9.582-7.771-21.205-7.046-31.777 2.87 9.598 9.528 21.655 7.046 31.777M689.3223 601.7789c-.07 2.782-.141 5.564-.208 8.339.072-2.785.14-5.562.208-8.339M139.2241004 677.3926c2.843.169 5.687.338 8.53.507-2.856.038-5.75.73-8.53-.507M689.3076 592.5889c.01 2.372.02 4.745.03 7.111-.01-2.374-.02-4.742-.03-7.111M572.4927 317.543c-1.601-.083-3.202-.167-4.79-.25 1.605.083 3.198.167 4.79.25M598.5298 258.5396c-.006-1.925-.012-3.85-.018-5.771.005 1.926.012 3.849.018 5.771M564.1562 306.8296c-.073-1.354-.794-2.036-2.164-2.045 2.75-1.486 3.472-.804 2.164 2.045M645.7065 413.9229c.107-1.713.215-3.426.322-5.135-.108 1.714-.215 3.425-.322 5.135M179.5899 678.6031c1.918-.133 3.836-.267 5.754-.4-1.919.133-3.836.267-5.754.4M582.4263 446.0386l5.707-.04c-1.903.014-3.805.027-5.707.04M636.9019 237.2945c-1.327.011-2.654.022-3.969.032 1.332-.011 2.65-.021 3.969-.032M913.5684 700.814c1.664-.008 3.327-.015 4.991-.022-1.659 1.047-3.323 1.02-4.991.022M215.0479 470.5137c-1.128.032-2.256.064-3.373.096 1.132-.032 2.252-.064 3.373-.096M814.21 221.2842c1.068 1.03-.336 3.398-1.608 2.582.536-.861 1.072-1.721 1.608-2.582M292.687 574.7808c.047-1.457.095-2.915.142-4.369-.048 1.458-.095 2.914-.142 4.369M674.061 575.586c.077-1.52.154-3.04.229-4.558-.077 1.521-.153 3.039-.229 4.558M940.21 417.167c.063 1.522.127 3.044.189 4.561-.063-1.523-.127-3.042-.189-4.561M426.2744 589.5342c1.704.146 3.407.291 5.111.436-1.704-.145-3.408-.29-5.111-.436M659.938 472.7979c.083-1.512.167-3.024.25-4.533-.084 1.513-.167 3.023-.25 4.533M363.8955 501.5591c1.698.157 3.396.313 5.094.469-1.698-.157-3.396-.313-5.094-.469M514.1514 633.7662c-1.094.001-2.187.001-3.269.001 1.098-.001 2.184-.001 3.269-.001M610.6055 264.2261c-.065 1.413-.13 2.825-.193 4.231.066-1.414.13-2.823.193-4.231M634.832 606.9502c1.681-1.194 3.316-.406 4.957.112-1.653-.037-3.305-.075-4.957-.112M438.3213 202.6641c-1.106-.045-2.211-.091-3.305-.141 1.11.045 2.207.093 3.305.141M706.2822 632.9331c-.1-1.407-.199-2.813-.298-4.215.099 1.409.198 2.812.298 4.215M615.7778 474.1412c-.911.006-1.822.012-2.722.02.915-.005 1.819-.013 2.722-.02M654.208 525.2364c.001-1.173.002-2.347.003-3.514-.001 1.175-.002 2.345-.003 3.514M595.9165 611.2847c1.365-.177 2.729-.354 4.092-.531-1.365.177-2.729.354-4.092.531M536.9248 440.5835c1.478-.009 2.956-.019 4.434-.028-1.473.868-2.952.705-4.434.028M613.4893 296.9615c-.854-.008-1.708-.016-2.551-.023.858.007 1.704.015 2.551.023M361.0879 514.6104c-.881-.012-1.761-.024-2.631-.037.885.013 1.758.025 2.631.037M190.9282 456.8506c1.475.015 2.95.031 4.425.046-1.484.833-2.959.855-4.425-.046M940.3525 459.2906c-.094 1.125-.187 2.251-.276 3.37.093-1.128.184-2.249.276-3.37M564.8418 640.1578c.125-1.229.251-2.458.376-3.683-.126 1.231-.251 2.457-.376 3.683M326.3413 493.7388c1.49.021 2.981.043 4.472.064-1.506 1.037-2.988.384-4.472-.064M666.1421 278.002c1.45-.164 2.899-.328 4.349-.492-1.45.164-2.899.328-4.349.492M544.999 671.8497c.131 1.291.262 2.582.392 3.869-.131-1.292-.262-2.58-.392-3.869M674.085 586.9434c-.002-1.205-.005-2.409-.006-3.608.002 1.207.004 2.407.006 3.608M148.4595004 678.0708c1.403.185 2.806.369 4.208.554-1.403-.185-2.806-.369-4.208-.554M174.7803 678.6382c1.385-1.132 2.791-.785 4.202-.06-1.401.02-2.802.04-4.202.06M427.8682 512.7207c1.372-.168 2.744-.336 4.114-.504-1.372.168-2.743.336-4.114.504M580.313 685.0152l4.194-.561c-1.399.187-2.796.374-4.194.561M531.415 687.1871c1.426-.183 2.851-.366 4.277-.549-1.426.183-2.851.366-4.277.549M609.9111 272.7662c-.063 1.151-.126 2.303-.187 3.447.063-1.154.125-2.301.187-3.447M274.1074 547.2359c.127-1.222.254-2.445.381-3.663-.128 1.224-.254 2.444-.381 3.663M598.9019 242.9927c.037-1.199.074-2.398.112-3.591-.036 1.201-.074 2.396-.112 3.591M326.5937 533.6426c.126 1.224.252 2.448.377 3.667-.126-1.226-.252-2.446-.377-3.667M331.3184 493.751c1.446.16 2.892.319 4.337.479-1.446-.16-2.892-.319-4.337-.479M561.5098 672.1783c.824 2.417.521 8.04-1.817 9.743-4.851 3.536-5.35-2.921-6.313-6.409-2.671-9.675-6.972-20.479-8.068-30.426-.336-3.051-.518-8.766 3.518-9.795 3.896-.992 5.869 5.18 7.213 8.35 3.727 8.796 5.889 19 5.467 28.537"/><path d="M561.5098 672.1783c.055-1.25.111-2.499.166-3.743-.056 1.251-.111 2.497-.166 3.743"/></g></g></svg>