<svg xmlns="http://www.w3.org/2000/svg" style="opacity: 0.1" viewBox="0 0 1024 768"><g fill="none" fill-rule="evenodd"><path d="M530.198793 382.002101l.154359.018388c2.234728.432376 5.939107 6.82576 7.456227 8.642857 4.890153 5.860369 9.781237 11.720738 14.67232 17.581107 1.957365 2.345452 4.780325 4.808317 6.174586 7.52278 1.073153 2.088263 1.440799 4.967662 2.081154 7.205952 7.953246 27.802508 15.731512 55.784863 21.524491 84.129704 1.247203 6.100785 2.430184 12.244435 3.123592 18.437473.341585 3.061109 1.240688 7.559121-.092144 10.517727-1.503159 3.334139-6.339328 4.719792-9.481535 5.753207-6.112226 2.011852-12.512053 3.209272-18.843936 4.28462-15.25683 2.589596-30.704464 4.093593-46.124175 5.310581-4.710518.371806-9.559718.365283-14.240453.998938-2.235658.301917-1.565519-.298191-2.270095 1.203011-.981009 2.088263-.330416 6.445567-.44676 8.722063-.274571 5.355309-.548211 10.709687-.822781 16.064997l-2.244035 43.819981c-.75856 14.80887-1.51619 29.617741-2.27568 44.426611-.286671 5.610635-.574272 11.222202-.860943 16.833769-.153573 2.998675.303424 6.87142-.500743 9.775047-.608709 2.196357.391846 1.548725-2.30081 1.679183-6.236015.300986-12.697272-.453808-18.935149-.67745-7.074619-.25253-14.15017-.505992-21.226651-.758522-2.020655-.072684-4.278651.500401-5.093056-.948617-.991247-1.763982-.23641-6.614232-.306216-8.584151-.196388-5.489495-.392776-10.979922-.589164-16.469417-.538904-15.069787-1.077807-30.139574-1.61671-45.209361-.735292-20.551827-1.471514-41.104586-2.206805-61.658277-7.867618 1.584135-15.736166 3.167339-23.604714 4.750542-11.62598 2.339862-23.252891 4.679723-34.879802 7.018652-5.332259 1.073485-11.665072 3.522372-17.17138 2.732168-5.469079-.784613-7.729867-3.120747-8.037014-8.312052-.329485-5.564974-.201042-11.173746-.126582-16.743379.122859-9.110643.384399-18.219421.728776-27.324472 15.534194-1.398699 31.069318-2.798329 46.603511-4.197959 8.271562-.745476 16.544056-1.490019 24.814687-2.235495 1.87732-.168664 6.505002.193824 7.342676-1.221648 1.303047-2.200084-.147059-9.43306-.18615-11.921085l-.370438-23.521615-1.357962-86.545977c3.719271.122072 7.438542.232961 11.157813.337328 16.181064.456604 32.442172 1.118213 48.627889.620608 8.117058-.248802 15.807834-2.438636 23.470686-5.022641 4.074818-1.373538 8.107751-2.869148 12.109039-4.442102 1.259303-.494809 4.965544-2.837466 6.324436-2.574686zm-21.784724 80.533764l-8.266475 40.431589 28.28748-1.87448-20.021005-38.557109z" fill="none"/><g fill="#fff"><path d="M744.688989 134.630073c-.577937 4.497116-.166587 9.39993-5.243321 10.58539-4.697956 1.097992-9.852865.789996-14.642956 1.174293-5.38292.432684-10.750018 1.023552-16.12177 1.5558-6.77239.670891-5.806369-1.931722-7.287044-7.715722-1.353175-5.281529-3.512299-10.552823-5.308467-15.704081-.834799-2.394182-1.831533-4.59668-2.969726-6.8531472-1.031168-2.0424517-.540712-4.8209305-1.651916-6.5377066-3.791497-5.8575096-22.28365 10.1601508-24.001643 7.0029576 3.128869-2.4360541 8.544362-5.1614943 9.503869-9.3301429 1.128887-4.8990927-1.984161-6.3618417-5.895712-4.5706255-9.625784 4.4096487-20.734105 7.8562278-31.231916 9.4632047 3.395037-2.2694943 34.102062-20.1565329 23.796898-25.4622549-2.32292-1.195695-5.424799 1.0551892-7.519708 1.9065985-3.324306 1.3520193-6.796588 2.2583282-10.267007 3.144166-3.656551.9332934-7.322409 1.8312278-10.999435 2.6798456-2.57885.5955212-7.176295 2.7105521-9.689069 2.1885405-2.550931-.5303861 1.96834-2.1141004 2.708212-2.4872317 3.226587-1.6255868 6.401058-3.372139 9.550401-5.1410231 5.588595-3.138583 10.750019-6.7740541 15.000329-11.6266216 3.207044-3.6615251 8.502481-11.6573282 6.269836-16.7201892-1.293614-2.9348031-4.129325-5.6472163-5.795201-8.427556-1.945073-3.2474518-3.515091-6.7089189-5.204234-10.092224 2.827336 1.2431506 6.000876 1.5613823 8.886843 2.6770541 2.885967 1.1166023 5.816606 2.0201197 8.818905 2.8501274 6.023212 1.664668 12.028741 1.9605676 17.997975 3.3107259 6.756569 1.5278841 13.796989 3.2362857 20.661514 4.119332 5.976679.7676641 11.351223 2.4034865 16.472628 5.6621043 10.457792 6.6568108 17.712263 16.2195791 21.381843 28.0453282 2.149818 6.9275868 2.672847 14.1557258 2.925986 21.3633938.267098 7.5994092.827354 15.3737531-.146114 22.9396641m-58.691879.559232c-7.302865 5.323401-15.816515 9.483675-23.653577 14.012428-4.484835 2.590518-9.064598 5.011684-13.638777 7.440294-3.246131 1.723289-7.190256 4.89444-10.763048 5.778417-2.260565.559231-2.092116.602034-3.522536-1.459027-1.367135-1.968012-2.561168-4.086765-3.840821-6.113398-2.359216-3.736896-4.740767-7.459834-7.122318-11.182772-5.339179-8.345672-10.66812-16.689483-16.27812-24.8574289-5.627683-8.195861-11.026424-16.5424633-16.478212-24.854637-2.534179-3.8643745-5.052536-7.7436371-7.741204-11.5019344-2.05396-2.8696679-7.317756-7.246749-4.818011-10.6254015 2.321989-3.138583 7.611843-5.7458494 10.740712-8.1214209 3.823138-2.9003745 7.669543-5.7709729 11.482445-8.6862355 8.197226-6.2669305 16.179471-12.8064981 24.369252-19.0818031 6.950146 12.1905058 15.126897 23.6189305 23.374379 34.952444-7.458285 4.7595174-14.992883 9.2836178-22.852281 13.3582857-5.804507 3.0092433-14.684836 7.0755367-18.351624 12.7841661-3.61188 5.6211621-.064215 12.1067606 6.374069 12.2100463 3.850128.0614131 7.688157-.958417 11.462902-1.5409112 2.724963-.4205869 7.700255-2.3848764 10.15719-1.0002896-4.415968 2.8175599-20.437227 11.0292394-11.80073 18.228533 6.173047 5.146606 16.609434-2.363475 23.277591-.817911-2.032555 3.900664-4.145146 10.12293 1.496496 12.244475 4.695165 1.766092 10.840292-1.525093 15.065475-3.270715 3.053485-1.26083 6.087427-2.564463 9.089726-3.940675 2.387135-1.095201 5.246113-3.313518 7.797044-3.786213 2.976241-.551787 9.036679 7.743637 6.173978 9.831684M550.235668 422.688347c4.17865-.762081 6.323814-2.490023 7.639763 2.583073 1.179142 4.544572 2.347117 8.921653 3.865949 13.381549-6.526697.563884-12.283741 3.680135-17.04312 8.063729-3.389453 3.123695-10.130201 10.578877-8.458741 15.809228 4.059525 12.710657 24.564689-15.803645 27.001149-18.851038 2.982756 4.359401 4.08 10.0671 5.562537 15.052729 1.055365 3.548004 4.971569 10.349973-.205675 11.212549-7.2675 1.211513-20.902555 3.917413-20.040767 14.210625 1.018139 12.149564 16.473559 12.080707 25.144489 12.626911 4.888741.307066 4.911077 4.224479 5.607208 8.608074.31177 1.960567 1.284307 4.609706-.380638 6.045471-1.477884 1.273857-6.004599 1.309216-7.928267 1.721428-5.608138 1.20407-11.212555 2.431402-16.819763 3.634541-6.365693 1.365977-9.731879-.547135-15.6825-2.290896-2.203795-.645768-4.416897-.373131-4.578832-2.839892-.09958-1.513926 1.382026-3.854139 1.866898-5.351316 1.920876-5.923576 3.55604-12.021155 4.10792-18.24156.803157-9.037966-.200091-22.588865-11.328887-24.352166-5.294507-.839313-6.312646-1.112881-8.702573-6.081761-2.585365-5.372718-6.689562-10.349042-5.697482-16.538741.717537-4.48502-.493248-12.972128 2.369453-16.692274 1.323394-1.719568 3.903175-2.745912 5.663978-4.007672 2.243814-1.609769 4.404799-3.333058 6.495985-5.13544 1.758942-1.514857 3.903175-4.476645 5.897573-5.570915 2.43646-1.338062 2.510913-.42617 4.260548 1.663737 2.582573 3.085544 6.688631 12.197019 11.383795 11.340027m11.810037 20.079301c-1.448102 2.922707-4.794745 5.639772-6.925949 8.079549-2.144234 2.453733-4.173066 5.047042-6.564854 7.270942-2.631898 2.44815-11.980347 8.360559-9.920803.401976 1.602591-6.190629 7.599745-11.204173 12.878431-14.29344 1.021861-.599243 12.983595-6.403714 10.533175-1.459027m10.226989 29.470857c.926934 4.143526 1.425766 8.414529 2.216825 12.587831.405766 2.13364 2.64958 7.287691 1.734744 9.339447-1.549544 3.478217-15.497299-.639254-18.38885-1.83588-6.882208-2.849197-10.041788-10.162942-3.694708-15.371892 2.406679-1.973594 17.205055-8.86117 18.131989-4.719506m9.143704 49.763244c.777099 3.955563 3.049763 7.622671-.707299 10.613305-3.119562 2.482579-8.23073 4.177023-12.074343 5.061-5.239599 1.204069-6.924088-1.731664-9.697445-5.507641-2.981825-4.060711-6.156296-7.983707-9.449891-11.795973 10.343321-2.315089 20.685712-4.631108 31.029964-6.946197-.006515 2.881764.343412 5.751432.899014 8.575506m-24.783394 18.357872c-5.394087-.27915-11.197664 1.344576-16.668066 1.771676-6.831952.533178-13.644361 1.309216-20.481897 1.767954 1.751496-5.589526 4.898047-10.574224 7.359635-15.853892 2.469032-5.298278 4.202846-5.871467 9.883576-6.279958 5.263796-.378714 8.976186-2.190401 12.860748 2.275077 4.041844 4.644136 7.702117 9.691178 11.392172 14.614464-1.255456.840243-2.755675 1.787494-4.346168 1.704679m-38.557117 1.140796c-1.330839.969583-5.435036-1.786564-6.817992-2.320672-2.69053-1.039371-3.287081-1.374352-4.691442-3.998367-1.206131-2.256467-3.125146-4.820931-3.502993-7.39656-.498832-3.394471 1.003248-7.864602 1.550475-11.237672 1.456478 3.511715 6.237263 3.919274 9.467573 4.493394 2.442974.435475 9.681624-.257749 11.523394 1.48229 2.035347 1.922417-1.711478 7.283038-2.687737 9.302228-1.165183 2.41-2.603978 8.04605-4.841278 9.675359m-2.6077 2.784992c-1.601661.25961-6.211205 1.852629-6.11907-1.072869.103303-3.341432 6.44573.263332 6.11907 1.072869m-8.122774-.174934c-.292226 2.813837-6.34708 2.580281-6.485748.105146-.235457-4.182606 6.951076-4.59854 6.485748-.105146m-6.923157-75.879641c-1.547683 4.408718-10.976168 5.985919-14.597354 7.343521-3.306624 1.239428-13.185548 6.962015-16.595475 4.886065 11.542008-7.932528 23.369727-15.705942 33.14907-25.834455.400182 2.50212-.209398 4.592027-.947409 6.960154-.66542 2.137363-.322938 4.691591-1.008832 6.644715m-2.870146 16.077212c-1.661223 10.799405-3.290803 21.741178-5.538339 32.432645-4.282884-1.308286-7.814727-3.961147-12.314453-4.885135-4.106058-.843035-8.347993-.863506-12.487555-.247514-8.822628 1.312008-16.687609 5.676062-24.385073 9.928456-.711022-7.405865-2.183321-15.331881-2.009288-22.7638.144252-6.17388 10.709069-8.001386 15.501022-10.551891 2.898996-1.542773 5.520657-3.712703 8.823558-4.250533 3.398759-.554579 6.678394-.53783 10.036205-1.573479 7.937573-2.449081 15.407956-6.332066 23.184525-9.225927.635639 3.70712-.247555 7.484027-.810602 11.137178m-7.417336 45.705324c-.352719 2.454664.092135 6.835467-1.778485 8.706707-1.761734 1.76237-5.52438 1.820062-7.8473 2.297409-7.076715 1.456236-14.146916 2.926429-21.213394 4.428259-3.161441.671822-6.323814 1.313869-9.498284 1.914042-1.514179.285664-5.31219 1.738178-6.58719.533178-1.209854-1.144518-.308978-4.799529-.243832-6.332996.130292-3.063213.303394-6.13573.110748-9.199873-.36854-5.877981-.040949-8.128865 5.429452-11.169745 5.811953-3.231633 11.81469-5.443436 18.356278-6.640992 6.623485-1.212444 12.933339-.548996 19.237609 1.993135 1.754289.707181 4.385256 1.579062 5.202373 3.470772 1.110273 2.573768-.793851 7.391907-1.167975 10.000104m-7.967354 94.745568c-2.593741 1.626517-8.238175 1.349228-11.218139 1.679556-4.811496.531316-9.653704.227973-14.433558-.514568-3.59792-.558301-8.96781-1.331548-11.725347-3.857861-3.918065-3.588946.603066-3.753645 3.601643-3.501479 8.717463.733236 17.544744.22146 26.253832-.40849 1.695657-.122826 6.253084-1.611629 7.888248-.914683 2.090255.89049 1.449963 6.37859-.366679 7.517525m-4.942719 58.003768c-16.241825-1.578131-25.658212-15.027606-31.548339-28.776703-3.161442-7.381671-2.021387-15.127169-2.333157-22.93315-.05677-1.425529-.952062-4.964228.513722-6.028722 1.377373-1.00122 6.949216 2.092699 8.455949 2.462108 7.725384 1.893571 16.268814 2.075019 24.010949.235417 3.354088-.79651 5.232154-2.277869 6.297756 1.045884.858065 2.677054-.550019 7.609645-.703577 10.415108-.265237 4.852568.49511 44.08346-4.693303 43.580058m-32.445493.014888c-.062354-2.356031-1.250802-26.162923-.097719-26.234571 3.426679 7.391907 6.946424 14.004054 13.184617 19.441907 3.18657 2.779409 6.769599 5.28339 10.754672 6.774985 1.497427.560162 9.981295.985401 10.397299 2.842683.726843 3.251174-5.064635 1.939166-6.782628 1.674904-1.378303-.213085-2.618868-.800232-3.971113-1.045885-2.576058-.467112-5.010657.160977-7.597883.213085-3.931095.080023-7.79146-.332189-11.724416.008375-3.595128.309857-4.066971-.103286-4.162829-3.675483m2.397373-106.78254c13.904014-4.494325 25.524197 4.016977 32.862427 15.156946 4.184233 6.352536 5.119544 10.794753 4.388047 18.31693-.262445 2.692873.221497 4.515726-2.254051 5.612788-2.45042 1.086826-8.017609.281011-10.669051.404768-7.624872.356382-15.220894.830008-22.845766.377784-4.952957-.293108-5.652811-1.132421-5.56719-5.940324.102372-5.787722-.378778-11.54939-.706369-17.346417-.35458-6.271583-2.50812-14.223653 4.791953-16.582475m-4.549982-8.336367c.008376-4.252394-.246624-8.615518.013029-12.861398.258723-4.209591 2.050237-4.001158 6.024143-4.719506 8.605784-1.555799 17.200401-3.296768 25.689854-5.406216 3.35781-.83373 7.152098-2.434193 10.650437-2.447297 3.670511-.01388 3.476004 1.873177 3.231241 5.123421-.544434 7.199293-1.863175 14.292509-2.264288 21.453652-.432755 7.728749-.659836 15.557062-.625401 23.294186.012098 2.611918.646806 4.546432-1.579325 2.102003-2.229854-2.44815-3.320584-6.349745-5.311259-9.101239-4.077208-5.634189-10.136716-10.166664-16.861643-12.075124-3.717974-1.055189-7.628595-1.238498-11.41916-.474555-1.150292.231694-6.911059 2.981328-7.644416 2.437915-.49604-.367549.095857-7.153699.096788-7.325842m50.865985 147.384992c5.515073 3.94905 11.622044 7.139741 17.804398 9.909846 3.478796 1.55859 17.248796 4.83861 17.688066 8.346602.234525 1.871239-2.047445 3.968591-3.54208 4.19005-1.895749.281012-5.019964-.957486-6.951077-1.191973-7.022737-.85234-14.031515-.857923-20.883942-2.812907-13.680657-3.904386-27.864799-5.004239-41.687846-8.408016-3.288942-.809536-6.585329-1.568826-9.891022-2.302061-3.140037-.696946-4.54719-.577842-4.657938-3.933232-.244763-7.364923 1.867828-14.910363 1.88458-22.366475 11.182774 1.276649 22.403704 1.2599 33.61719 2.310436 4.804982.449433 4.693303 1.360394 6.798449 5.558819 2.186113 4.355679 5.904087 7.894378 9.821222 10.698911M438.968187 475.76976c-.14146-2.72637-.252208-5.460185-.498833-8.179112-.165656-1.826575-1.834324-6.932239-.89343-8.354977 1.117719-1.688861 2.243814-.657864 4.243795-.70532 2.636552-.062344 4.84407-1.122185 7.018084-2.509564 4.117227-2.625876 7.178157-6.082691 9.850073-10.117347 2.35084-3.550796 1.913431-8.401502 1.884581-12.652965-.074453-10.993881.726843-21.716985.055839-32.759251-.308047-5.072166 4.021369-1.961499 7.517847-1.304564 5.718887 1.073799 11.934744.330328 17.746697.344286-.215913 1.352019-12.101332 4.708339-14.021278 5.985918-4.915729 3.268854-7.782153 8.499205-7.333576 14.461861.901806 11.996031 14.113412 14.001263 23.767117 14.024526-8.009234 7.08205-15.875146 13.833772-22.17011 22.570254-4.641186 6.441865-12.816076 19.142286-5.228431 26.269-6.707244 3.809475-13.354927 8.046981-20.940711 9.88007-.33969-5.650008-.703577-11.300016-.997664-16.952815m-3.04511-218.978741c2.730548 1.753996 3.878978-.725792 5.957135-2.009884 2.926916-1.809827 3.89573-1.632101 4.267062-5.673271.686825-7.495193-2.466241-14.279482-6.425255-20.413351-1.79896-2.787784-3.594197-6.107815-6.13396-8.28705-2.315475-1.986622-4.656077-1.302703-6.801241-3.356321-.842245-.807675-.661697-1.94754-2.05396-1.914973-.916697.021402-3.14469 2.861294-3.902244 3.488452-2.391789 1.980108-5.317774 3.487521-8.452227 1.854491-4.563941-2.376502-3.098157-11.002255.446716-13.796553 2.729616-2.15132 5.955273-1.819131 9.062737-2.166208 2.330365-.25961 2.815237-.158185 1.85666-2.825004-.671934-1.867517-2.220547-3.324683-2.985547-5.151259-1.470438-3.507061-1.150292-7.769691-1.785-11.481463-.570493-3.325614-1.904124-6.922934-1.85573-10.300656.063285-4.30078 1.468577-5.418313 5.194927-6.624244 3.610018-1.167779 6.599288-3.742478 9.674179-5.905895 3.480657-2.449081 7.292628-4.066294 10.869142-6.30229 2.428084-1.518579 3.99531-4.588305 6.665365-3.154401 3.17261 1.703749 6.527628 6.636339 9.225602 9.157069-3.947846 2.505842-4.865474 3.601973-4.32197 8.507579.499762 4.497116 1.415529 8.504788 4.853376 11.637788 1.320602 1.204069 3.784051 2.168069 4.807773 3.556378 1.194033 1.617213.417865.191684.267099 2.017328-.080037.984472-.858997 1.628379-.689617 2.766383.757555 5.054486 6.563923 2.071297 8.956642.31544 8.549015-6.273444-7.413613-11.255351-11.205109-13.540664-2.617938-1.579062-3.912482-6.61866.235456-5.279668 2.759398.89049 8.992938 8.440583 9.625785 1.558591 6.842189 3.974173 11.06458 12.418478 16.80208 17.757698 4.13677 3.850417 9.694653 8.121421 6.410365 14.271108-4.184234 7.838549-12.482901 11.396788-20.058449 14.779163-7.348467 3.280019-5.82219 12.562706-1.894817 18.244351 2.270802 3.284672 5.246113 5.20895 8.825419 6.804761 3.656551 1.63117 4.415967 3.547073 5.214471 7.330494.886916 4.196564-.054909 5.888216-3.689124 8.056286-3.547664 2.117822-7.257263 4.168648-11.045037 5.825872-8.190711 3.584294-16.687609 3.810406-25.399489 5.032155-3.053485.42803-5.981332 1.319451-7.647208-1.707471-1.873412-3.406568-2.011149-9.273383-2.872007-13.070761m-1.316879-16.302394c-2.050238-1.080313-6.999471 2.508633-9.591351 2.665888-4.192609.254027-6.945493.158185-10.66719 2.382085-7.035766 4.204008-12.873777 9.616738-18.515419 15.486344-6.354526 6.611216-12.672756 13.256861-19.005876 19.887617-2.870146 3.003661-5.755183 5.991502-8.670931 8.949568-2.297792 2.331838-4.544398 5.610927-7.388485 7.274664.147974-1.976386 1.359689-3.37493 1.789653-5.207089.250347-1.071007-.187062-1.980108-.025128-3.005521.053048-.33312.947409-1.490664 1.083285-1.870309.362956-1.00215.806879-1.992204 1.237774-3.032506.402043-.971444.343412-1.978247.75104-2.992494.419726-1.045884 1.568157-1.738177 1.966478-2.768243 1.167974-3.014826-.765-4.41244-3.856642-4.341722 1.209854-6.032444 1.738467-8.983066 8.045529-11.110193 6.026003-2.032216 11.912409-4.313807 17.447956-7.48961 4.914799-2.819421 9.015274-6.882923 13.740219-10.025228 4.229836-2.813838 9.495493-5.761668 9.451752-11.53171 2.398303 1.626517 4.645839 2.995285 7.389416 1.376212 2.315474-1.367838 2.622591-2.468622 5.29916-2.726371 2.185183-.209363 3.539289-.265193 5.489015.696016 2.295 1.129629 2.608631 1.915903 3.945055-1.411572 1.518832 1.27851 5.358722 6.603773 5.230292 8.711359-.0698 1.161267-.245694 1.685139-1.684489 1.991275-2.040931.433613-1.961825-1.118464-3.461113-1.90846m-9.560639 315.155421c-.997664 1.528815-5.203303 1.246873-6.827299 1.226401-4.951095-.064204-6.682117-4.219826-8.854271-8.234942-3.424817-6.330204-8.54343-19.480058-2.925054-26.123841 4.43458-5.243379 13.072007 1.363185 16.097573 5.323401 2.612354 3.421456 1.836186 8.553174 2.079087 12.658549.204745 3.460536 2.401095 12.132814.429964 15.150432m-13.526168 2.292757c-1.979507 1.979177-8.403832 1.560451-11.026423 1.985691-4.681205.757428-9.336351 1.66839-13.877957 3.051116-3.381076 1.029135-6.723065 3.798309-7.614635-.914684-.748248-3.962077-.375985-8.715081-.304324-12.714378.077244-4.314738.528613-8.574575.903667-12.869772.25407-2.905027-.381569-8.2489 1.989745-10.478383 2.043723-1.921486 7.0125-2.106656 9.665803-2.743119 4.356405-1.044954 8.908248-2.417444 13.436825-1.949402-2.642135 7.171379-2.866424 14.691695-.033504 21.83795.80781 2.03966 8.083686 13.572301 6.860803 14.794981m-33.293321-28.569201c-1.103759 10.787309-2.214033 21.642544-1.151223 32.483822.064215.646699.836661 3.608487.500694 4.071877-.347135.480139-3.096296.728583-3.720767.875602-2.47927.588077-4.954817 1.211514-7.449909 1.733525-4.856167 1.015178-5.489945-2.052687-6.442938-6.553525-2.04093-9.642791 1.916223-20.097911 4.313595-29.359197 1.167975-4.510143 2.033486-5.029363 6.468066-5.403425 3.086058-.25961 7.951533-2.432332 7.482482 2.151321m-18.752737 40.245139c-1.85573 1.68793-3.7105296-6.276236-3.8743253-7.087633-.6486678-3.223259-.2875729-6.492112-.2782664-9.765618.0158212-5.113108-.3750547-10.202954-.3825-15.291869-.0046533-2.752424-2.066989-8.3801 1.1903102-9.836336.9557845-.4271 4.7528655-.249374 5.6146535.312649 1.789653 1.16871 1.084215 1.926139.553741 3.959286-1.187519 4.563181-2.214033 9.148695-3.247993 13.750027-1.014416 4.511073-2.014872 8.851865-1.531861 13.510888.159142 1.540911 3.139106 9.372946 1.956241 10.448606m59.184197-50.261992c4.523923-1.274788 4.765894 2.191332 4.758449 5.508571-.689617-.528525-7.118595-4.843262-4.758449-5.508571m-60.513176-243.498398c-1.108412 1.826575-8.1292879 2.325324-10.1357842 2.806394-3.9469161.94539-7.8956934 1.884266-11.8323723 2.868737-7.3754562 1.844255-14.5694343 3.924857-22.1300912 4.889788 4.1516606-6.647506 5.4434124-12.387772 4.6709671-20.683197-.9743978-10.47373-2.2131022-20.841382-4.6244343-31.093653-2.3768978-10.109903-5.1288503-20.15188-7.7793613-30.193857-1.301989-4.933521-2.710073-9.773061-4.4420255-14.573521-1.3885402-3.847625-3.5569708-8.690888-1.2005475-12.635286 5.9804015 4.363124 10.7770073 9.06402 14.187865 15.691985 3.6546898 7.105313 6.8449817 14.399517 11.0859854 21.196834 1.939489 3.107876 4.2037774 5.942185 6.2782117 8.950498 1.2340511 1.790286 2.1330657 4.372429 3.7049452 5.882633 1.8119891 1.740039 3.7440329 2.560741 4.779854-.375923 1.1112044-3.15161-2.4336678-9.387834-3.4797262-12.34776-2.5267336-7.145325-5.0320621-14.275761-6.9808577-21.605325-1.5765329-5.924505-4.1823723-13.087509-3.2600912-19.338621.9129744-6.188769 5.1120985-1.759579 7.2367883 1.117533 4.3806022 5.931949 7.0031934 12.846509 9.8807846 19.571247 2.6449271 6.178533 5.7300548 12.06861 8.6569709 18.103845 1.0181386 2.100143 2.3601459 7.524969 5.0274092 8.149336 3.877116.909101 3.548594-4.551085 3.178193-6.76661-2.456934-14.686112-8.871022-28.748787-10.2018614-43.689857-.0642153-.713695-.9911496-6.265069-.2456934-6.728459 1.4453102-.898865 3.3950365 4.732532 4.0185766 6.112467 3.2433392 7.176961 5.5020442 14.742872 7.5746172 22.324602 1.762664 6.447448 3.356879 12.944212 5.335456 19.330247 1.087007 3.510784 2.333157 6.962946 3.561624 10.425344 1.111204 3.136722 2.239161 8.497343 5.137226 10.563988 4.111643 2.932012 18.825329-4.039309 20.316241 2.193193 1.060949 4.43012-12.582482 7.997664-15.487993 9.34317-3.825 1.770745-7.577408 3.709911-11.40427 5.482518-2.897135 1.340853-7.060894 1.890779-9.156733 4.414301-2.220548 2.673332-2.576059 6.426977-2.642135 9.743285-.051186 2.509564 1.688211 8.703915.372262 10.870124m-9.298193 48.374004c-.1945073 1.392031-1.3010584 3.235355-1.7989598 4.56039-1.0134854 2.699386-1.8752737 5.924506-3.285219 8.446166-1.212646 2.171791-3.0022993 4.113749-4.1739964 6.318108-1.1112043 2.091768-1.2591788 4.503629-2.5574452 6.598189-1.4853285 2.393251-3.9404015 4.11468-5.4154927 6.493043-.7268431 1.173363-1.4778832 2.513285-2.5053285 3.762949-3.6379379 4.426398-7.2498175 8.602491-10.1758029 13.344329-.7482482 1.214305-4.402938 6.513513-5.8575547 6.800108-3.0404562.597382.4988321-3.7248 1.0935219-4.619012 4.3080109-6.465127 8.1339416-13.271749 12.2921167-19.837371 4.0278833-6.357189 8.1497628-12.665061 12.0259489-19.118092 3.1614417-5.261058 5.3475548-12.813942 10.4857117-16.520131.0195438 1.259899-.0223357 2.517007-.1275 3.771324m140.474288-59.419062c2.502537 10.287629 5.49553 20.257027 8.316351 30.452537 2.617938 9.460413 6.101387 19.584274 7.186533 29.336865 1.074908 9.661401 3.544872 19.436324 6.866386 28.60642 1.535584 4.243089 3.114909 8.501997 4.781716 12.695769.915766 2.303923 1.939489 4.555737 2.979033 6.805691.806879 1.748413 2.939014 4.579 3.020912 6.431629.065146 1.48322.58073.890491-.883193 2.005232-1.516041 1.154753-4.142354.735096-5.907811.938876-4.60489.532247-9.09531 2.264842-13.584799 3.387027-8.657901 2.163417-18.977956 3.881124-27.849909 2.375572-3.731934-.633672-7.60812-1.182668-11.298175-2.008023-4.540675-1.016108-5.474124-2.894792-6.405712-7.357479-2.038138-9.756313-3.793357-19.487502-5.475985-29.30895-2.000912-11.682452-4.166551-23.351876-5.710511-35.106907-1.559781-11.891815-2.680292-23.795726-5.124197-35.558201 9.858449 1.648849 19.142683 3.510784 29.029982.809537 8.75562-2.392321 15.076642-7.068093 20.059379-14.505595M527.912 392.173467c2.203796 4.54271-3.108394 8.626683-5.682591 12.12537-3.395036 4.611568-6.565784 9.429707-10.514562 13.601147-1.184726-4.739977-2.22427-10.073614-5.384781-13.966834-4.03719-4.971672-8.749106-2.940386-13.694617-5.291764 5.186551-2.523522 11.809106-1.560452 17.31115-3.810406 5.427591-2.219247 10.907299-3.961146 15.957044-6.843841.671003 1.394822 1.333631 2.793366 2.008357 4.186328m-19.234817 105.982309c-3.315.184239-1.097245-6.806622-.882263-8.543869.591898-4.775336 1.19031-9.549741 1.708686-14.333452 2.735201 7.212321 5.469471 14.424641 8.202811 21.636031-3.005092.428961-5.990639 1.072869-9.029234 1.24129m-5.392226 34.573729c.452299 1.004942 2.561168 4.354749.896222 4.972603-2.281971.845826-2.556514-4.701827-.896222-4.972603m-3.955292-77.696911c-10.560165 8.431278-21.046807 16.883958-32.472482 24.142803-2.503467 1.590228-5.024617 2.255537-6.683978-.897934-1.303851-2.479788.073522-5.273155.910182-7.700834 2.133066-6.188768 5.849179-11.568931 9.967336-16.605737 8.225146-10.058726 18.014726-18.650051 30.506004-22.61585 2.043722-.64949 5.198649-2.607266 5.914325.096772.421587 1.590228-1.362482 5.56161-1.724508 7.054135-1.491843 6.163645-1.166113 12.336595-6.416879 16.526645m30.398047 61.488498c.232664 7.159282-19.33812 1.384587-21.776441.105147 2.558375-.857923 21.671277-3.323753 21.776441-.105147m7.2675.044664c1.162391.309858 5.622099.70346 3.956223 2.227622-1.490913 1.364116-8.242829.816981-10.032482.984471 1.202409-3.949981 2.115383-4.266351 6.076259-3.212093m-3.625839-9.589753c-.437409 1.59302-.615165 4.02256-2.042792 5.114039-1.778486 1.360394-5.557883.534108-7.570894.545274-3.419234.01768-6.834745.192614-10.237227.532247-1.301989.12934-6.575091 1.718637-7.795182.634603-.896223-.79651-.562117-4.532475.090274-5.371788 1.340146-1.726081 4.426204-1.128699 6.360109-1.197556 7.076715-.253097 14.115274-.273568 21.195712-.256819m-4.543467-26.462544c-.998595-1.484151-1.177281-1.468332-1.603522-3.710842-.455092-2.399764-1.613759-4.452451-2.295-6.771262-1.498358-5.102873 3.289872-4.649718 6.802171-2.778479 9.111132 4.854429 6.911989 21.815618 4.658869 29.756521-3.275913-2.408139-4.484836-3.500548-5.611862-7.386324-.428102-1.476707-.908321-2.927359-1.354105-4.395691-.327592-1.081243-.099581-3.974174-.596551-4.713923m.789197-82.55227c2.543485-.307066 4.871058 7.585452 4.144215 9.293853-1.48719 3.494035-7.170712 6.614938-10.065055 8.845351-1.92739 1.484151-3.841752 3.18697-5.901295 4.481298-1.9125 1.201278-3.012537.527594-4.791022 1.104506-2.573267.832799-3.196807 3.555447-5.830566 4.726019-3.705876 1.646988-8.197226 2.107587-12.067828 3.594529-4.696095 1.804243-9.000384 1.85356-13.92449.998428-7.081368-1.229193-15.381897-4.742768-14.743467-13.347119 1.125165-15.18207 31.275657-22.961066 39.498011-10.088502 2.140511 3.350737 2.107008 7.256054 3.496478 10.855235 1.504873 3.895081 2.964143 2.364406 5.2275-.504332 2.961351-3.753645 5.712373-7.708278 8.557391-11.551251.92042-1.24222 4.563942-8.184695 6.400128-8.408015M344.8415442 545.777934c-.1442518 2.582143.0102373 5.200575-.8878467 7.664544-.9045985 2.484441-2.7389233 4.493394-3.795219 6.908047-2.1414416 4.893509-2.1256204 10.814293-2.04 16.057672.1991606 12.19981 3.0879198 24.048822 4.6160584 36.102544-5.0860401-.012097-10.3433211.045595-15.2730109-1.40878-4.402938-1.298981-5.1055839-4.516656-6.3508029-8.571784-3.4964781-11.389343-7.273084-22.72937-8.4019708-34.656544-.5369891-5.683506-.7631387-11.413537-1.02-17.115653-.2242884-5.002378.8990146-7.184405 5.414562-9.660471 9.814708-5.383884 19.9886496-9.866112 29.7028467-15.505884-.9930109 6.691239-1.58677 13.434587-1.9646168 20.186309M763.837256 146.059428c-2.389927-.438266-4.80219-.712764-7.213522-1.000289-1.258248-.150742-5.179106.058621-6.120931-.761151-1.120511-.976096.819909-8.355907.919489-9.939622.606789-9.523687-.098649-19.3414127-.972536-28.8288104-1.580256-17.1752046-6.981788-33.0867876-19.444215-45.4540888C724.802712 53.919266 717.8293 49.0350614 709.35753 46.6781c-4.935274-1.3734208-10.021314-2.1057259-14.967756-3.4372741-3.989726-1.0756603-7.713285-2.3067143-11.85843-2.7328842-8.267026-.8504788-15.824891-3.9741737-23.892756-5.7812085-5.93573-1.3296873-15.482409-4.4831583-19.330675 2.2192471-3.029288-3.5526564-6.076259-6.2204054-9.896606-8.87047489-3.659343-2.53840927-4.257755-5.07402703-8.738869-2.14294595-8.706295 5.69560234-16.860711 12.64366024-24.992792 19.12367564-7.595091 6.0519846-14.943558 12.3896332-22.903467 17.9549653-8.11812 5.6769923-6.578814 15.3104788-2.761259 23.2969768 7.18281 15.0322587 18.261351 27.8834209 27.958796 40.7690118 6.074398 8.072104 12.168339 16.154444 18.21854 24.242367 5.784033 7.73061 10.786314 16.677386 17.544744 23.622652 4.261479 4.378012 9.347519-1.347367 13.192993-3.992784 4.77334-3.285602 9.46292-6.6931 14.241843-9.969397 9.951515-6.824302 20.600091-13.215919 31.106278-19.156244.764069 2.166209 1.528138 4.332417 2.292208 6.498626-2.307099.173073-5.4248-.342425-6.598358 2.138293-1.677975 3.543352 2.438321 4.008603 3.15958 6.039888.644945 1.814479-1.99812 6.606564-2.779872 8.241456-1.758011 3.683857-4.213084 6.85966-6.917573 9.892166-10.698832 12.000683-24.23896 20.584564-37.976387 28.766467-14.700657 8.754162-30.456679 14.098965-46.550529 19.740599-8.184197 2.867807-16.678303 4.200285-25.123084 6.037096-8.137664 1.769815-16.267883 4.094209-24.583303 4.762309-17.012409 1.365046-35.065292 2.388598-51.872025-1.280371-1.839909-.401046-3.786844-1.271065-5.658395-1.436695-1.500219-.133061-2.611423.495958-4.027883.576912-3.041387.174003-4.784507-2.545854-7.200493-.01861-1.208923 1.263621-1.230328 3.386096-2.914817 1.027274-2.143303-3.000869 3.334544-3.581502 5.364306-4.436634 6.834745-2.878973 12.328413-8.674139 16.670858-14.532579 4.339653-5.853787 4.963194-12.10583 2.321059-18.959907-2.641205-6.851286-8.648595-11.495421-13.158559-17.058892-2.18146-2.693803-4.188887-5.54393-6.584398-8.059077-1.278722-1.343645-3.339197-2.629599-3.419233-3.984409-.093066-1.57441.84969-2.356962.285711-4.271004-.146113-.497819-.771514-.780691-.904598-1.327827-.210329-.87188.115401-1.620003.005584-2.469552-.253139-1.948471-1.017208-3.172081-2.098632-4.768822-.673795-.997498-1.659361-2.994355-2.586295-3.741548-1.624927-1.310147-3.840821-.776039-5.492737-2.103865-2.614216-2.100143-3.533705-6.52561-5.846387-9.075185-3.255438-3.588016-3.949708.03722-7.398723-1.106367-2.949252-.978888-2.914817-5.416452-5.29823-6.917352-3.356879-2.1141-6.184215 1.775398-9.165109 2.641695-3.921789 1.139865-2.415055-3.284671-5.910602-3.687579-3.156789-.364757-7.529015 6.038958-9.103687 8.313104-1.603522-1.869378-3.35781-5.054486-6.243777-3.913691-3.029288 1.198487-3.568139 6.774054-5.782172 8.763467-.771514.691363-.608649 1.202209-1.557919 1.520441-1.225675.410351-2.858978-1.368769-4.443887-.826286-3.196807 1.09427-2.806861 5.360622-2.813376 8.124212-3.771953-.550857-6.40292-.831868-7.665821 3.233495-1.235913 3.978826-1.704964 2.222969-5.681661 3.515436-3.42854 1.113811-3.907828 4.369637-4.473668 7.553814-.349927 1.980109-.026058 2.788715.506278 4.593888.671934 2.274147.671934 2.245302-.423449 4.416163-1.908778 3.787143-2.023248 7.959513-2.328504 12.127231-.323868 4.4478-1.101898 8.496413.161934 12.839996.781752 2.688221.841314 6.346024 3.474143 7.851576 1.044197.596451 2.818029.269845 3.706806.861645 1.696588 1.129629 1.180073 2.849196 2.309891 4.498976.846898 1.234776 2.212171 1.353881 3.160511 2.355101 1.031168 1.089618 1.092591 2.417444 1.679836 3.747131 1.738467 3.937884 3.373631 5.842622-2.293139 6.067803-3.495548.138645-7.22469 1.187321-10.706277.865367-4.108851-.378714-5.130712-2.675193-6.438285-6.172019-6.590913-17.621846-10.132993-36.722259-18.81323-53.479668-1.9059854-3.679205-9.7290876-18.710533-13.0357117-7.758525-2.7882482 9.237092.8701642 20.510123 2.2726642 29.704413-4.4010766-3.96673-6.0287956-11.111124-9.3707846-15.954386-2.4681022-3.57778-10.1972081-12.36451-14.727646-7.329564-3.5709307 3.968591-2.6784307 12.38312-2.0195256 17.127749 1.0414051 7.505428 3.439708 14.73915 5.1530475 22.100351-2.1572628-2.821282-3.2210037-6.26693-4.7175-9.443664-1.8771351-3.983479-4.2195986-7.764108-6.8887227-11.264656-2.3322262-3.059491-4.939927-5.903104-7.7672627-8.511301-2.1609854-1.994996-6.0315876-6.360912-9.1008942-6.597259-7.8984854-.605757-5.414562 13.883089-4.2112226 18.025683 2.4932299 8.585742 5.1967883 16.934205 7.1325547 25.69302 3.7840511 17.11193 8.3675365 33.828397 11.154854 51.158065.6170256 3.842973 1.3606205 6.909908-.1591423 10.60307-1.3392153 3.253965-2.7286861 7.145324-5.1995803 9.647444-5.5932482 5.665826-10.2372263 11.71595-14.4177372 18.543042-4.4783212 7.311884-9.087865 14.708444-12.7434854 22.470691-1.6807664 3.571267-3.0553467 7.43378-4.9873905 10.869193-1.7440511 3.100433-3.8408212 5.550444-5.0804562 8.983066-5.92363142 16.401958-10.30981755 32.517321-12.31817522 49.885139-1.64912409 14.259012-.11260949 33.226363 17.10361312 36.563143 7.9087226 1.532537 15.0096351-1.974525 22.1412591-4.869317 7.3763869-2.993424 12.7099818-7.859949 18.7266789-13.031679 7.4759671-6.426047 15.237646-12.455699 22.792719-18.774738 7.5587956-6.32276 14.5405839-13.334092 22.0584307-19.72478 7.425712-6.313455 14.143193-13.018652 20.564726-20.350077 6.370347-7.272803 11.544799-15.330019 17.712263-22.704247-.023266 9.54788-1.440657 19.008294-1.838047 28.543147-.363887 8.742065-.372263 17.475757-.019544 26.21317.352719 8.73276-1.95438 17.044934-1.972993 25.759085-.019544 8.500135-.356442 16.950953-.542573 25.441783-.083759 3.809475-.830146 8.08234.592828 11.756892 1.062811 2.744051 4.402938 3.601973 7.25261 4.341722 4.403869 1.142657 17.653631-1.05798 19.620109 3.646637 1.073979 2.567255-.007445 7.241166.076314 10.078267.139599 4.674842.31084 9.348753.470913 14.022664.165657 4.827444.32666 9.654888.502554 14.481401.156351 4.252394.983705 8.99051.470913 13.201031-.43834 3.608487-2.542555 3.136722-5.877099 3.321892-5.032992.27822-10.067846.501541-15.103631.721139-7.386624.323815-15.095255.175865-22.176624 1.047745-2.97438.365688-6.224234.210294-9.361478.806746-3.934818.748123-7.569033.937946-11.55969 1.136142-3.217281.159116-7.3531204-.07444-9.8807847 2.303923-.8766788.825355-1.0730474 1.808896-1.6947262 2.727301-1.1642519 1.720498-.5165146 1.268274-2.4271533 1.655363-7.4620073 1.511135-14.5489599 3.216745-21.8462409 5.759807-3.6528285 1.272927-7.042281 2.982259-10.7118613 4.179815-3.2163504 1.049606-5.5737044 2.342073-7.1632664 5.499266-2.840365 5.638842-2.1209672 13.796552-1.915292 19.873661.3238686 9.480884 2.4299452 18.506752 4.7016788 27.675918 2.362938 9.538576 4.2158759 19.333039 8.8123905 28.096506 1.5104562 2.879904 3.1409672 6.553525 6.2260949 8.054425 3.9832117 1.937305 10.1087956.763012 14.4558942.770456 2.9176095.004652 10.7323357 1.006803 12.9128649-1.439487 2.1116606-2.369058-.0130292-9.050062-.3108394-11.989517-1.0451277-10.302518-2.9259854-20.699946-2.9008576-31.072251 2.3796897 3.516367 6.5062226 9.586031 10.6355475 4.198424 1.016277-1.325965.619817-1.941957 2.424361-2.710552.998595-.425239 3.10281-.68578 4.189818-.61227 1.478814.099564 2.02604.694155 3.384799.402907 1.202409-.257749 2.554653-1.334339 3.933887-1.661876 17.093376-4.062571 34.088102-8.441514 51.255-12.061166 4.538814-.957487 3.893868 2.527243 4.19354 6.45117.331314 4.339861-.300602 8.723455.301533 13.01493.52396 3.734105.931587 7.373298.193577 11.129734-.870165 4.43012-.309909 8.127004.556532 12.51432 3.339197 16.919317 2.742646 35.269746 3.495548 52.465421.391806 8.956081-.449507 18.100124.392737 27.007819.318285 3.364695 2.19635 5.223838 2.957628 8.284258.873887 3.514506-1.509526 7.98929-2.234508 11.393997-1.456478 6.833606-4.015784 16.615042.66542 22.560949 2.527664 3.212093 5.841734 3.677344 9.583905 4.76324 4.478321 1.299911 8.892427 2.814768 13.392154 4.045822 16.440054 4.499908 34.205365 5.380162 51.054908 7.85995 4.125603.606687 7.952464.549927 12.105055.262402 2.559307-.177726 8.863577.664378 10.991989-.867228 1.140055-.819772.562117-1.846116 1.141916-2.848267.822701-1.423668 1.820365-2.00244 3.221934-2.888278 2.321059-1.466471 5.005073-2.323463 5.39688-5.351316.957646-7.417031-8.310766-11.346541-13.266515-14.55305-6.33312-4.099792-13.98312-5.682576-20.704324-9.028661-3.708668-1.846116-7.286114-3.937884-10.858905-6.032444-1.549544-.90817-4.690511-1.936374-5.770073-3.366556-1.101898-1.459027-.023267-3.54149.432755-5.626745 1.88365-8.615517 1.24708-17.42551 2.221478-26.132216.974398-8.720664.709161-17.495297 1.030237-26.260626.331314-9.026799 1.07677-18.031266 1.649124-27.045038.526752-8.325201 1.058157-16.784394 1.14657-25.117969.082828-7.727819 1.136332-15.309549 1.385748-23.087614.08469-2.639834-.389015-7.428197 1.363412-9.664193 1.537446-1.961498 6.627208-1.714915 9.001314-2.059201 6.399197-.928641 12.489416-1.74283 18.816022-2.302992 15.054307-1.332479 31.807062-2.313228 46.042391-7.560328 5.870584-2.163417 13.682518-5.119622 15.630383-11.861109 2.240091-7.74922-.684033-17.273837-.780821-25.197061-.103303-8.459193-2.555584-16.712746-4.394562-24.909537-1.980438-8.82395-3.227519-17.799571-5.367099-26.590023-1.963686-8.066521-5.148394-15.209985-8.159069-22.868016-1.221953-3.106015-8.178613-13.808648-6.02042-16.448482 1.162391-1.421807 5.349416-1.781911 7.047865-2.432332 3.661204-1.400406 7.328923-2.993425 10.705347-4.988421 4.507171-2.664027 14.376788-7.070884 14.831879-12.989807.432756-5.657452-5.126058-11.374456-7.951533-15.816672-4.552773-7.159282-10.294927-13.417838-14.630857-20.718556-8.763066-14.754039-15.731825-30.914066-22.120785-46.813552-3.341989-8.318687-4.43365-16.151653-4.983668-25.030502 9.704891.023263 19.582883 1.217097 29.226351-.139575 10.495018-1.477637 21.003996-3.964869 31.406879-6.014765 18.944453-3.734104 37.134142-7.950208 54.68354-16.358224 16.434471-7.872977 33.109982-16.490355 46.717117-28.987926 7.035766-6.462336 14.212993-13.048429 20.288321-20.438475 6.241916-7.591035 10.937081-16.215857 15.7523-24.738325 5.314981-9.406444 9.545748-19.292096 12.890529-29.581586.672865-2.068506.676587-4.702757 1.537445-6.656811.971606-2.20622 2.738923-2.263911 4.584416-3.426108 2.595602-1.634892 4.323832-7.106244-.181478-7.93346M537.890445 40.759539c2.218636 1.9058888 11.780347 8.6194078 14.868831 6.9870014 3.810676-2.0152817-2.222421-8.0856458-3.846644-9.5822541-2.067192-1.9040027-9.453808-7.6641058-12.282-7.1294008-5.652598 1.0694101-.73639 8.0092594 1.259813 9.7246535"/><path d="M542.613235 109.6620964c1.253669-2.466997 4.587818-3.3739404 6.129155-5.7612673 1.854985-2.8699801 2.70685-5.3814442 2.022945-8.9008291-4.747427 1.598036-10.148135 6.4347584-13.324532 10.2172403-2.654884 3.1608689-6.4261 9.7660845.502025 9.7827597-.060317-.9402937-.120634-1.8815137-.181879-2.820881 2.077695.3020056 3.908554-.6577424 4.852286-2.5170226M519.997855 68.6176995c3.060398.8796834 5.586143.7551341 8.713255.823941 2.269223.0505165 5.370025 1.2977507 7.208895-.1080007-1.632149-.9450064.430354-.9972648.02631-1.9187548-.339209-.7681988-.9838-.5164874-1.507178-1.1383626-1.867998-2.2157568-3.492631-2.1887566-6.454367-2.6495017-2.295533-.3588411-5.670709-1.186266-7.876038-.0452906-2.320903 1.2010726-3.219196 4.1423505-.110877 5.0359694M563.562835 136.579451c1.979516-1.660178 4.137114-6.466726 4.537329-8.946462.156524-.971566-.543617-1.716036-.4602-2.431204.160273-1.362573 2.960838-3.997063.027181-5.115142-2.566248-.9788914-4.977846 6.625144-5.630187 8.284406-.669211 1.696806-2.491266 5.00251-1.931715 6.644374.463949 1.361657 2.121044 2.683938 3.457592 1.564028M587.241469 33.6624072c1.791-1.6621513 2.924119-3.5472038 2.738749-5.83290203-.147205-1.80050376-1.49568-8.00811036-3.013169-7.82556196-5.038609.60817443-2.77328 16.48892499.27442 13.65846399M480.864651 311.196844c-.41451-1.517869-1.922071-10.798286-4.52822-10.165996-1.980231.480503.076624 8.647196.168942 9.72181.192946 2.247936-4.128481 2.17437-6.136407 1.870797-3.184987-.481435-2.929264-2.347575-3.405628-5.242701-.179097-1.094169-.868716-6.038883-3.150828-4.227684-1.541718 1.223608-.439436 7.321157-.311113 8.712381.444974 4.81807.967497 13.046223 3.832138 17.421969 1.14198 1.745083 2.169484 2.606451 3.369624.368758 1.213987-2.264697-1.534333-9.167741-2.015312-11.484587 2.267341.221628 8.793332-.514026 10.158722 1.840998 1.247223 2.149228-.747779 8.290544 3.253302 8.78874 2.373508.296124 1.943304-2.453732 1.715277-4.567574-.479132-4.435344-1.780823-8.752423-2.950497-13.036911M486.943654 309.050071c-2.627965 1.186876.671664 18.494857 4.516262 17.936719 4.487383-.652591-2.012196-19.068259-4.516262-17.936719M484.014886 303.318521c-.323813 3.897048 4.740231 5.349967 4.979949 1.114881.184621-3.267694-4.638737-5.211637-4.979949-1.114881M456.216982 199.995804c2.312266 8.616058 23.355767 12.280827 20.520892.66138-1.420258-5.818331-7.349435-.649602-11.489895-1.326384-2.678845-.437598-10.658983-5.41063-9.030997.665004M450.932045 184.627281c.989478-4.610698-9.095474-9.69913-12.754795-8.4298-5.353467 1.857241-5.330499 13.732103-1.246723 16.889227.53746.415704 2.184752 1.406356 2.991401.616612 1.273366-1.248962-.117598-.908252-.415268-2.155363-.471311-1.983155-2.013867-4.529223-.477742-6.785503 2.90412-4.262581 10.486438 6.470717 11.903127-.135173M420.181073 207.005421c-3.636301-.20434-6.617677 5.439324-1.268084 4.966424 1.024598-.090493 3.22575-.348351 3.820248-1.424539.983721-1.783592-.953507-3.452365-2.552164-3.541885M596.580669 72.4624415c-1.244473-1.8002705-3.853648-4.6974247-6.098543-2.8917016-1.990079 1.6012503-1.642847 5.5534848-.879295 7.5173337 2.053783 5.2872155 6.906059 9.9973631 12.397169 6.9511708-1.907533-3.8213719-2.982426-8.0525983-5.419331-11.5768029"/></g></g></svg>