<svg xmlns="http://www.w3.org/2000/svg" style="opacity: 0.1" viewBox="0 0 1024 768"><g fill="none" fill-rule="evenodd"><path d="M662 292c-7.635439 14.92835-15.702001 29.459696-23.846721 44.11628-4.312504 7.758484-18.218753 39.849162-21.810195 41.07524-3.867512 1.320007-27.558928-12.611835-34.35859-15.340767-12.082827-4.850462-23.564002-9.442283-36.185103-12.432962-14.132558-3.34886-28.377308-5.817948-43.036796-4.573084-6.420222.546037-17.047405 2.098384-10.666261-6.921245 4.651605-6.577491 9.157326-12.633993 15.475441-17.385516 4.598659-3.459069 11.339073-9.803618 16.723085-12.114256 5.648737-2.424605 13.980025-1.887334 20.051062-1.744563 6.56267.155295 37.844395 9.91573 39.565111-.25734 3.190572 2.903013 5.048692 1.780232 8.704425 3.197924 4.120893 1.598035 6.68999 4.700176 10.781889 6.573734 2.654819 1.21606 7.548458 6.022688 10.499516 6.051492 3.922979.038824 4.97936-3.209845 7.796795-5.60815 6.311812-5.373955 14.716215-8.910672 21.56504-13.579538C649.289396 298.944438 655.031418 294.657547 662 292zm-68.723637-118c-.536397 6.814897 1.302499 13.147234 1.258326 20.159427-.018932 3.05998-.157764 6.118703.77115 9.066841.834255 2.642767.25116 7.390449.694161 10.157626-7.80616-2.376354-22.308676-5.900655-30.27891-2.696159-7.619367 3.063751-8.577717 17.230751-8.846547 24.121048-.183006 4.696158 1.902002 11.930781.321838 16.42713-.737073 2.097032-.743164 2.773969-.696943 2.962758l.005702.020329c-.150422-.077478-.762367-.076153-2.91966 1.480589-2.139279 1.541928-4.69253 2.392691-6.806567 4.095472-3.844392 3.10145-4.503253 6.616038-6.400207 11.11113-1.842683 4.365656-6.751811 8.245933-12.231899 8.087593 4.404769-7.983595 10.52137-15.440037 7.011437-24.817274-2.64791-7.07754 1.993282-15.383177 5.644571-22.106337 1.209103-2.226811 14.610202-19.285975 8.671967-20.488603-3.85575-.781646-12.70631 17.326833-14.400064 20.488603-4.722821-3.193187-6.843796-7.128727-3.208915-11.937986 2.791791-3.693339 6.219686-6.851339 8.937012-10.675372 4.412342-6.206671 8.712356-13.614713 13.952643-19.127705 9.203317-9.680093 25.268734-16.270047 38.520905-16.32911zm-36.771223 80.219c.0517.035418.029571.069443.00655.017238l-.00655-.017238zm160.454963-90.795789c5.880986 5.634094 13.319815 10.307218 19.002919 16.219818 4.974765 5.176191 11.673744 13.882629 14.036978 20.797599-12.126224 2.337189-32.274554 9.495869-37.103113 22.221821C694.037652 205.349935 686.742102 237.000621 683 250.235913c-11.037246-4.775996-8.836483-20.676389-8.690277-29.959911.113435-7.364091 4.599167-16.080566-6.093992-16.683995-7.990881-.449122-15.75111 2.805129-22.958027 5.852383-8.992892 3.80248-18.426196 9.49094-25.689831 16.024532L612 219.577368c12.414854-6.970169 18.885863-20.297005 26.153279-32.499818 2.317859-3.890298 5.41424-8.216377 7.104425-12.421561 1.169643-2.908001 1.992678-8.777663 3.274496-11.36325 2.016626-4.064677 21.714021-5.183718 26.932041-6.23125 13.774816-2.764984 30.239308-4.422218 41.495862 6.361722z" fill="none"/><g fill="#fff"><path d="M713.820953 253.75416c5.08836-.260228 10.154082.876229 15.242441.380915-4.418044-3.848115-8.83483-7.694972-13.252874-11.541829-1.951838 3.426971-2.09395 7.325371-1.989567 11.160914zm-120.717111-79.098171c-13.169872.057828-29.2348 6.672914-38.384038 16.334057-4.846895 5.120343-8.852437 11.995657-12.952301 17.748343-2.749173 3.859428-5.434207 7.584343-8.77195 10.976114-4.867017 4.943086-3.473566 6.073257 2.009689 9.795657 1.735525-3.252228 10.937583-20.639771 14.794725-19.857828 5.860542 1.189257-5.458102 19.556114-6.694349 21.844114-3.660953 6.769714-9.573058 16.225943-6.916949 23.365257 3.505006 9.4248-1.577065 14.796572-5.990078 22.8272 4.634356.134514 5.090874-1.673257 6.688061-5.625714 2.05119-5.080114 4.289766-9.324229 8.627322-12.836686 3.359122-2.7192 8.853695-3.864457 10.432017-7.148114 1.951837-4.059314.726908-12.074857.885369-16.590514.240207-6.861486.257814-23.0824 7.818668-26.130972 7.921793-3.1944 22.165678-.183543 29.910146 2.1824-.967116-6.046857-4.016861-9.9968-3.97536-16.716228.045275-7.033715 1.982021-13.309372 2.519028-20.167086zM491.92774 286.872332c6.889281-2.181143 13.420139-4.4792 20.508125-5.965143 7.417485-1.556343 7.91299-3.336457 12.0946-9.6976 3.169221-4.821143 7.015044-8.58 6.117099-14.4848-.575994-3.787772-2.649821-5.633257-2.026038-9.892457.386092-2.64 1.618566-5.522629 2.508966-8.033143 1.091621-3.08 3.354092-6.5736-1.906562-6.725714-2.905119-.084229-3.047231 1.448228-5.012902 4.0216-3.628254 4.753257-7.803576 9.069028-11.664492 13.627428-6.705667 7.914972-13.816291 16.337829-21.301688 23.6632-8.239973 8.0608-15.351854 17.783543-20.677905 28.103429-.983464 1.905828-6.964739 13.130857-4.413013 15.332114 2.342959 2.021486 15.375749-2.6928 17.752664-3.244686 10.257207-2.381028 21.900319-3.230857 31.591593-7.555428 4.937444-2.203772 15.833526-4.833715 19.733427-8.243086 3.625739-3.169257 3.462248-10.846629 1.358238-15.314514-5.88821 3.663314-48.457631 17.484343-44.662112 4.4088zm128.161007-62.996686c6.874189-6.209029 14.999718-11.189829 23.487444-14.8808 7.592295-3.301257 17.02324-6.980914 25.469464-6.407657 10.523824.7128 6.125902 9.189714 6.088173 16.408228-.049047 9.578172-4.247007 23.376572 7.189854 28.346058 3.733895-13.262858 11.602868-44.6248 30.454699-27.246058 4.817969-12.752457 22.000928-17.068228 34.100559-19.410285-2.193302-6.442857-8.854953-12.274743-13.471702-17.110972-5.776281-6.049371-10.336437-13.139657-16.12278-19.074628-11.43183-11.720343-32.141176-7.956457-46.613949-5.034857-4.830545.974285-18.835481 2.198742-21.175925 5.7464-1.467651 2.225142-.647678 7.661028-1.735526 10.381485-1.499091 3.7488-4.05962 7.223543-6.114583 10.685715-7.496715 12.633028-15.122966 25.347771-27.95202 32.581371l6.396292 5.016zm41.951925 68.057943c-6.787414 2.6048-11.780193 6.959543-17.800454 10.626628-7.299268 4.446515-15.858678 8.611429-22.409658 14.103886-2.397037 2.008914-3.743956 5.478629-7.052773 5.703657-2.877451.196115-7.262796-3.146628-9.814522-4.315771-4.279705-1.964914-8.368251-4.941829-12.669335-6.693029-3.53519-1.439428-5.099678-1.145257-8.158227-3.943657-1.715404 10.210514-32.924678.666286-39.471885.5104-6.056732-.143314-14.367132.574514-20.003817 3.008343-5.371326 2.319429-9.570543 7.424686-14.168427 10.9032-6.30197 4.7696-12.315943 9.593257-16.956587 16.195771-6.366108 9.052686 3.23839 6.490629 9.643485 5.943772 14.619915-1.2496 28.841163 2.232686 42.93539 5.593028 12.597651 3.003315 25.039356 6.606286 37.098742 11.476458 6.782383 2.739314 13.920675 5.257371 20.29936 8.8176 3.362894 1.878171 8.817223 6.474285 12.675623 5.149257 3.538963-1.2144 7.065349-11.358286 9.210861-15.410057 4.166519-7.864686 8.549349-15.597372 12.851692-23.385372 8.125529-14.711086 16.174342-29.298971 23.790532-44.284114zm-83.52279 194.702514c4.182868-2.4024 11.001722-1.754971 15.627275-2.761943 5.226698-1.137714 10.482322-2.990743 15.466298-4.922971 5.046858-1.956114 9.81578-3.957486 14.427498-6.405143 2.109041-1.118857 4.919838-2.221371 6.86916-3.773943 1.570776-1.252114 2.142996-3.577828 3.591783-4.713028 3.777912-2.963086 4.888396-1.103772 5.39522-6.82.549583-6.209029-2.934044-9.725258-7.270342-14.371658-3.882295-4.158628-8.92538-7.7528-13.803716-10.678171-2.158088-1.2936-4.463318-2.749371-6.665423-3.983886-3.331454-1.870628-7.796031-4.979543-9.544132-.965485 3.64083.929028 4.443196 5.5792 1.157017 7.249942-1.804695.917715-4.536262-.429942-6.571102.5456-3.141553 1.506058-6.163631 5.708686-8.852437 7.971543-8.826028 7.430972-17.267221 10.2168-28.819784 10.813943-24.138894 1.244572-49.4172-1.508571-73.09203-5.0864-6.093203-.921486-12.176346.076686-18.326142-.143314-5.98379-.213714-12.222878-1.5224-18.1048-2.533143-11.329963-1.946057-23.27239-3.547657-34.426285-6.411429-13.489309-3.463428-27.025149-7.943885-39.689454-13.7456-12.148678-5.566628-25.879451-14.763885-39.524705-15.472914 5.822813 5.701143 14.54823 7.897372 21.551955 11.652457 5.724719 3.067429 14.676509 5.037372 18.293445 10.092343 2.354277 3.289943 3.535189 9.333029 5.313474 13.1912 1.966929 4.269257 3.781685 8.6064 5.602729 12.939772 1.82859 4.359771 3.733895 8.722057 5.219152 13.212571.919326 2.785829 1.315478 8.561143 3.4874 10.466971 3.464763 3.039772 15.061343 4.388686 19.730912 5.399429 8.717872 1.889486 18.661929 1.638057 27.55461 1.7688 3.674787.054057 7.378499.555657 10.889794.623543 4.931156.094286 4.460803-.759314 4.390376-5.039886-.040244-2.570857.011319-7.246171 3.449671-5.129143 2.342959 1.4432.730682 7.833257.2968 10.103657 19.627787 1.954858 40.106987 2.937943 59.641709 2.284229 19.211512-.643657 37.757739-3.121486 56.734074-5.357943zm88.641332-45.056c3.463506-24.870057 7.684102-50.154971 12.40775-74.7032 4.773952-24.805943 10.513762-49.386857 16.97042-74.099771-4.264614-1.0208-8.529227-2.039086-12.793841-3.058629-.158461 5.207086-1.919139 9.730286-2.669942 14.913486-1.036285 7.1544-3.017048 14.101371-4.20299 21.231886-2.25241 13.554514-6.426475 26.817371-10.103776 40.034971-3.747729 13.475314-5.000326 27.357943-8.443709 40.901143-2.838464 11.157143-4.288508 23.446971-5.873118 34.917143-3.844566 27.826857-9.32279 55.707771-13.491824 83.548457-3.909963 26.102057-4.302342 52.734628-4.077227 79.080571.138339 16.085143 2.591969 32.123772 2.463691 48.230286-.03144 3.981371.303088 7.950171.510597 11.925257.145885 2.804686-1.360753 10.578857-.083003 12.928457.808654 1.4872 4.283478 2.858743 5.513437 4.924229 1.945549 3.267314 2.355535 7.173257 5.480739 9.646057 2.532861-10.2168 1.3356-23.700914.782244-34.127657-.535749-10.045829.504308-20.428572.709302-30.629029.399925-20.009943 1.460105-39.726971 2.486328-59.746971 1.124319-21.954743 4.322465-44.443772 7.446411-66.233829 2.840979-19.812571 4.736223-39.977143 6.968511-59.682857zM574.45952 129.6905031c-1.373329-.1282285-2.746658-.2552-4.119987-.3834285.204993 2.8939428-.406213 7.5805714 1.633658 9.0904004 1.545623 1.144 4.675857.768114 6.549722 1.133942 6.142251 1.200572 13.26042 2.205029 19.357396.0176 2.36937-.849828.847641-2.181142 4.109926-1.628 3.930085.667543 2.495132 1.289829 3.629512 3.741258.87405 1.892 1.324281 5.111542 2.316549 7.3832 1.328054 3.039771 4.019376 8.479428 2.868647 11.989371-1.11803 3.411886-5.290837 4.442743-7.064091 8.3072-1.319251 2.872571-1.00736 7.0488-1.692766 10.213029-.914295 4.220228-2.070055 8.424114-2.580651 12.722285-.642648 5.414515-.422563 11.768115 6.286878 12.607886 6.226512.780686 10.678512-1.220686 14.853834-5.7552 7.974613-8.656686 17.079834-20.877371 21.764495-31.766743.547067-1.272228 1.893986-3.395543 1.7066-4.757028-.371-2.694058-.533234.032685-1.387163-1.837943-.814943-1.788915-2.093949-3.411886-2.84601-5.396915-2.705156-7.131771-4.623038-14.606742-5.707112-22.155885-.491732-3.4194289-.656482-6.7973717-.572221-10.2507431.027668-1.1792.735712-4.7193143.31315-5.5264-.430109-.8184-2.673716-1.1955429-3.372956-2.0076572-1.296614-1.5048-3.523872-5.7539428-4.960082-6.8803428-1.766966-1.3841143-5.719688-.2878858-6.437793-3.0410286-1.148213-4.4062857 26.024078-11.5833143 13.32959-17.4629714-9.477478-4.3899429-24.01439 17.8011428-27.328237.3394285-.574736-3.0246857.5194-7.1305143-.807397-9.9025143-1.466393-3.0636571-5.458102-4.2089142-8.246261-5.6998857-3.557827-1.9008-7.152125-3.8544-10.609342-5.9362285-2.371885-1.4268572-5.788858-5.2158858-8.312916-5.5628572.993526 5.1429714-.911779 10.2406857-.94322 15.3736 5.468163-1.4796571 9.230983-1.5110857 14.627461 1.1201143 2.57059 1.2521143 12.254319 8.3587429 7.348315 11.7769143-3.975359-2.3496-8.227396-4.3874286-12.658017-5.7690286-1.748101-.5456-3.930084-1.2873143-5.788857-1.3250286-4.314919-.0867428-3.707485.3645715-5.327309 3.6180572-1.561973 3.1340571-1.226186 11.308-4.654478 13.3093714-3.545251 2.0692572-.811169-.8272-3.838278-.1584-1.726722.3821714-3.608132 1.6657143-5.188969 2.3910857 2.165634 2.3508572 6.537146 4.4968 7.973356 7.1078857 2.095207 3.8066286 1.368298 11.6801143 1.696539 15.8450286 2.742885-.9818286 5.630396-1.0220571 8.41101-1.7512 2.613349-.6864 6.23783-3.6570286 6.510736.7102857.304345 4.8664-7.38856 6.1574857-10.843261 6.1574857zm35.700261 128.1254859c.213796-4.205143.447715-8.409029.915552-12.596572.315664-2.812228 2.985607-10.968571 1.476454-13.438857-1.641203-2.686514-7.142064-2.857485-9.789369-3.5024-5.074526-1.237028-9.941543-2.250285-15.099071-3.067428-4.74377-.750515-9.213377-.908915-13.993617-1.1264-5.205319-.235086-6.495644-1.616686-7.646373 4.119657-.904234 4.510628-2.117844 9.208571-2.286366 13.827314-.158461 4.334629 1.150729 8.097257-3.145326 11.018857 9.433461 0 21.719221-8.398971 30.327678-.8888 12.313427 10.739772-9.115281 13.8336-14.7658 16.204572 4.697238 2.282971 11.67078 4.075657 13.881688 9.290285 2.481299 5.844458-1.119288 8.329829-6.628952 8.797486.518142 2.2528 2.50142 3.716114 3.092505 6.425257.865247 3.971315-1.941776 2.656343 1.639946 5.7288 4.716101 4.044229 14.424983 6.748343 20.20881 9.324229 1.354464.605943 2.725278 1.174171 4.111183 1.705943 2.166891 1.928457 3.766593 1.561371 4.800363-1.102515 2.966742-1.878171 5.607759-6.068228 8.239972-8.505828 5.855512-5.423314 12.318458-10.182857 19.276909-14.098857-2.884997-1.194286-6.334668 1.5048-9.102705.191085-2.237319-1.062285-1.394709-2.994514-2.734081-4.441485.537006-1.886972-.030184-2.577143-1.70157-2.070515-.835064.089258-1.612278-.0528-2.331641-.423657-1.399739-1.734857-2.028552-2.303085-2.121617-4.982057-.098095-2.8424 1.548139-3.8456 2.179468-6.121028 2.053705-1.3992 2.007173-2.774515-.139596-4.122172-.882855-1.4432-1.364526-3.008343-1.443756-4.696686-.408729-6.269371 5.313474-8.796228 9.67744-12.112571-7.813637-.858629-7.515579-10.0232-2.10904-14.029714 5.603986-4.1536 17.469698-2.452686 24.245793-1.516115 1.4098.1936 5.216637 2.011429 6.641529.852343.874051-.710285.256556-6.715657.2968-7.775428.091806-2.406172.676603-5.274972.293027-7.668572-.802366-5.012228.897946-2.487885-2.710187-2.627428-8.587078-.333143-19.522145 7.1632-27.076711 10.697028-8.456285 3.956229-13.890492 4.564686-13.978526 14.372915-.084261 9.287771-2.688807 18.5416-3.825702 27.681028-.496762 3.991429-.851413 24.728-8.156969 17.075772-2.832176-2.968115-1.01742-7.5328-.807397-11.1936.286739-5.037372.11696-10.152686.289255-15.203886zM137.767367 568.709932c4.1803525.741714 10.9891457-1.658172 15.5493017-1.9096 7.9746135-.438743 16.1869183-1.198057 23.9992983-2.857486 6.112068-1.298629 13.076807-2.441371 16.373047-8.357486 2.946621-5.287543 3.987936-11.908914 5.575061-17.6792.842611-3.063657 3.017048-7.5064 3.017048-10.675657 0-4.120914-.555871-3.3088-4.853183-5.564114-5.439237-2.853714-10.731332-6.830057-16.598163-8.449257-1.774512-.346972-3.550281-.6864-5.327308-1.019543-2.298943-1.333829-3.596814-.6776-3.897387 1.964914-2.243607 2.365943-3.559085 6.726972-5.4417523 9.493943-4.2922814 6.308343-9.3894441 10.607771-16.0485797 14.245943-11.9826712 6.544686-23.1478847 11.595886-35.9819695 15.8752-7.0728949 2.3584-13.5949491 5.6672-20.5081254 8.266971-5.5385898 2.083086-13.1824475 2.716686-17.43699999 7.353029-4.80036272 5.230971 2.57813559 7.133028 6.67925759 10.669371 3.3603797 2.897715 3.4257763 3.562743 8.0224034 2.156 3.4245187-1.048457 6.4604305-3.052343 9.7491254-4.411314 11.2645661-4.652686 24.8985017-7.749029 37.1289255-9.101714zm257.442559 82.971428c-4.197959-.908914-8.397176-1.816571-12.595135-2.722971 4.12879 7.707543 12.812705 18.985371 6.579905 27.906057-2.329126 3.332686-6.203875 4.283086-9.664865 5.973943-4.189156 2.046628-8.056359 4.667771-12.016627 7.106628-16.330288 10.054629-32.925935 20.251315-50.13279 28.879086 5.386417 1.738629 13.66915 2.941714 19.216543 1.426857 6.46043-1.765028 12.441705-5.815543 19.07443-7.586857 11.89841-3.175543 24.423119-5.879657 36.511431-7.508914 9.881176-1.331314 34.614929 1.677028 33.413895-13.183657-1.140668-14.108915-9.568027-27.569143-12.075736-41.517143-6.153569 1.366514-12.024173 1.127657-18.311051 1.226971zm250.238871-225.820571c4.785272-23.485943 7.643858-47.3704 13.288089-70.687886 2.815827-11.632343 4.800362-23.424343 7.550793-35.0592 1.280264-5.413257 2.247379-10.879314 3.493688-16.282514 1.262658-5.469829 3.979132-10.518514 4.6004-16.173143-4.572732 1.131429-5.630397 11.604686-7.016302 15.544571-2.542922 7.228572-5.31599 14.174286-8.583305 21.094858-5.194 11-10.704922 21.6128-16.564207 32.277142-6.177464 11.248915-12.703291 22.066629-20.421349 32.338743-2.535376 3.375429-5.976244 6.020457-7.611159 9.722743-2.57059 5.824343-3.650892 12.766286-6.10578 18.826972 1.729238.877485 6.195071 1.096228 8.315431 1.514857 3.943918.778171 6.706925 1.4696 10.494898 3.345257 6.67297 3.303771 12.279471 7.219771 16.737759 13.163543 1.120546-3.051086 1.412316-6.396343 1.821044-9.625943zM459.452035 605.052675c-.079231-22.618515-.399926-45.430629-.028926-67.881943.101868-6.234172.609949-12.959886 1.514183-19.146286.56719-3.888343 3.907448-12.154057 1.711631-14.0184-1.87638-1.594057-11.781451-.544343-14.212444-.600914-4.714844-.109372-9.414597-.319315-14.138244-.673829 0 8.382629 3.274861 17.901714 4.79659 26.193829 1.418603 7.7352 2.584423 15.513143 3.755274 23.283543 2.534119 16.826857 3.254739 33.886285 6.006427 50.7584 2.492617 15.298171 5.781312 30.532228 7.59481 45.827885.994784 8.396457 3.008245 16.317715 4.572733 24.709143.817457 4.376114 3.796776 22.398514 7.549535 24.171086.793563-6.465486-2.447342-14.272343-3.028366-20.809486-.59863-6.7496-1.062695-13.544457-2.15683-20.329257-1.285295-7.965257-1.934231-16.127886-2.427221-24.1912-.300573-4.934286-.392379-9.853486-.818715-14.784-.308119-3.577829-1.662583-8.999886-.690437-12.508571zm117.874874-302.461029c.155946-2.462743-6.218966-2.363429-7.406166-5.194514-2.408356-5.748915 3.081187-4.714286 6.456658-5.308915-1.203549-3.196914-23.73897-2.0328-18.488376-10.663085 3.642088-5.987772 17.453349 3.1768 21.144484-2.513029 2.425963-3.737486-4.176579-4.251657-6.794959-4.626286-3.940146-.564457-13.222692 1.259658-12.917088-3.853142.384834-6.424 18.430525-10.857943 23.492474-12.744915-.560901-4.398743-22.280122 1.854286-25.422932 3.636915-7.114396 4.036685-12.564952 11.277828-13.608783 19.326057-1.216125 9.364457 3.532675 16.738857 12.885648 19.036914 3.899901.957943 6.782383 1.0648 10.390515 2.505486 2.3744.946628 10.058502 3.3088 11.685871.918971-.472868-.173486-.944478-.346971-1.417346-.520457zm127.500753-58.244686c.359681-3.998971 3.726349-11.526743-.152173-14.154171-5.427919-3.677143-7.676556 2.382286-8.906515 6.021714-1.504122 4.444-7.826214 15.322057-2.297685 18.091543 1.285295.643657 7.379756-.1056 8.455027-.530514 2.99441.780685 3.960268-.340686 2.901346-3.366629v-6.061943zM572.369343 567.283075c-.340817-10.9296 4.55261-24.069258 7.325678-34.773829 3.144068-12.128914 4.800363-24.4992 8.13056-36.494857-3.70497.446286-7.443895.810857-11.104848 1.553828-4.994037 1.014515-5.083329.854858-4.724905 5.753943.535749 7.3568-.166007 14.570286-.54581 21.924572-.760865 14.724914 1.092878 29.692457-.139597 44.324343 1.099166.279085 1.451302-.484 1.058922-2.288zm138.276102-286.441258c11.99902 1.836686 23.498763 5.6408 34.417481 10.752343 6.019004 2.817257 12.647956 5.844457 19.373746 6.9696 7.47282 1.250857 15.397129.663772 23.02841 1.146515 2.690065.169714 9.761702 1.477142 12.385112-.1056 2.598258-1.567658 2.394522-4.224 2.516512-7.390743.315664-8.145029-3.371698-16.120343-6.686803-23.428115-2.843495-6.269371-4.994038-11.056571-9.407051-16.449714-5.666868-6.926857-10.601797-14.401828-15.908983-21.631657-4.00177-5.449714-8.045041-10.821486-12.123526-16.264914-2.917695-3.897143-2.779356-5.238515-7.177278-4.802286-4.33001.429943-8.690203 2.989486-12.768688 4.345943-6.054217 2.013943-13.384925 3.118971-18.905908 6.338514-3.569146 2.081829-3.728865 2.465257-3.687363 6.0984.038986 3.384229 1.130607 7.511429 3.154129 10.158972 4.205505 5.496228 11.176532 8.405257 17.159064 11.147085 3.46099 1.585257 6.451627 3.834286 9.532814 6.021715 3.318878 2.3584 10.015742 3.747542 12.556149 6.435314 7.394847 7.828228-6.066793 6.280686-9.828356 6.044343-8.116725-.5104-16.189434-.432457-24.366525-.438743-8.92538-.006286-17.779075-.421143-26.578692-.130743-5.153756.169714-11.067119-2.443886-14.406119-6.801143-1.61605-2.110743-2.246122-4.105828-4.360193-6.295771-2.770552-2.867543-5.180166-5.888457-8.550607-8.107315-5.514695-3.630628-15.535467-5.6848-22.100281-4.3296 2.350505.328115 13.406305 4.092 8.539288 8.822629-.592342.575771-7.704224.952914-9.249847 1.6632-2.789417 1.281029-6.305743 3.142857-7.941916 5.848229 4.763892-.798286 22.432295-1.722286 13.418882 7.4184-2.212166 2.244-8.564441 4.482971-3.15916 6.869028 1.241278.548114 3.72635-.227543 5.324794.266514 2.375657.735429 4.317434 2.702858 6.543434 3.751315 6.313288 2.978171 15.01481 4.814857 21.603518 4.1624 9.110251-.903886 18.604078.722857 27.653963 1.915885zM469.045214 556.266732c.310634 13.130857-.163491 26.339657.11696 39.530857.299315 14.087543 2.106525 27.893486 2.968 41.838971.77344 12.498515 2.461176 24.759429 3.83199 37.198857.788532 7.164458 1.697796 14.015886 2.910149 21.126286 1.135637 6.654057 1.329312 12.517372-6.62518 14.306286-15.208485 3.421943-17.571566-18.457372-20.510641-27.676-4.387861-13.758172-7.201172-28.201486-9.37561-42.463772-4.047044-26.562171-9.42843-52.754742-11.528668-79.541942-1.29284-16.494972-3.167962-32.821486-4.231915-49.301372-.208766-3.2296.61498-8.205371-2.220969-9.643543-1.7066-.863657-6.403838-.8712-8.556895-1.497257-5.998882-1.744914-11.532441-4.314514-17.385438-6.980914 4.153943 21.720914 5.526014 43.333714 8.642414 65.244457 1.652522 11.626057 4.816712 23.673257 7.558339 35.117029 2.84098 11.857371 3.472308 24.624914 6.749685 36.224571 1.443756 5.1128 2.666169 7.195886.570962 12.4432-2.570589 6.4416-.865247 7.982857 2.358051 14.3088 5.928455 11.638629 10.454655 25.374171 9.44981 38.494971-.819972 10.715886-8.916576 16.325258-18.946152 19.216686-12.546088 3.615543-25.683261 3.188114-38.304807 7.293943-10.996691 3.576571-22.169451 6.219086-32.847963 10.940914-4.306115 1.903315-8.397176 4.1624-13.178674 4.511886-6.557268.476457-10.979085-3.328914-17.172898-4.122171-3.870977-.494058-9.539102 1.352685-11.768875-2.705372-1.768224-3.217028.232661-10.236914 2.452373-12.826628 6.234058-7.2776 18.718522-13.618629 27.125759-17.913029 9.690017-4.949371 19.065627-11.144571 28.043827-17.532114 5.441753-3.873257 10.991661-7.589372 16.429641-11.468915 3.596814-2.568342 4.963854-2.584685 4.596627-6.664114-.293027-3.253486-1.75942-6.408914-2.015976-9.740343-.19619-2.552.697983-6.030514-.508082-7.696228-.886627-1.228229-4.216823-2.0944-5.526013-3.024686-4.787787-3.394286-5.875634-7.593143-8.050071-12.756229-4.938702-11.726628-10.613116-23.123885-15.382038-34.9448-10.2396-25.380457-16.487491-52.068342-24.976474-77.966742-8.672597-26.459086-16.427126-54.235658-21.203593-81.686629-6.391261 1.9448-12.422841 10.5512-17.512458 14.809143-6.876705 5.7552-13.921932 11.320571-20.665329 17.232914-11.053285 9.692572-22.244908 19.118629-31.379054 30.725829-4.400437 5.590514-8.003539 11.6072-11.987702 17.480571-2.301457 3.393029-4.446969 7.2336-6.939586 10.461943-.399926.517943-.411244 1.581486-.84261 2.022743-.949509.969257-2.761749-.321829-3.370441.3168-3.755275 3.927314-3.706227 15.078171-4.877078 20.260114-1.612278 7.141829-3.423261 15.353486-8.99958 20.2752-8.613488 7.601943-24.498576 8.779886-35.3996878 9.174629-13.989844.506628-27.5608983 4.405028-40.8338949 8.592571-6.1912983 1.952343-12.2203627 4.236572-18.4342983 6.132343-3.5741762 1.092457-7.6514034 3.268571-11.4683017 2.849943-4.6029152-.504114-8.2374576-4.377372-11.6091559-7.256229-5.39396272-4.604914-10.388-9.144457-10.21406595-16.699885.19455069-7.997943 4.52707611-14.034743 11.35221845-18.007315 13.1950238-7.681143 27.953278-12.604114 42.1757831-17.911771 5.4505559-2.035314 10.1163525-4.286857 15.3279593-7.026172 7.3634068-3.872 15.8398136-7.032457 22.3731865-12.144 1.9266847-1.508571 9.0058682-6.129828 9.6095292-8.513371.07923-.310514-1.6902513-3.949943-1.697797-4.526971-.0176068-1.484686.861475-3.092572 1.402254-4.363543 3.403139-8.000457 9.111509-15.704229 13.475475-23.248343 7.99222-13.818514 16.014623-27.709943 25.28082-40.706286 18.477058-25.910971 39.232936-51.281371 61.635048-73.899886 10.921233-11.0264 20.358467-23.533714 31.433132-34.408 4.387861-4.306971 9.019701-7.8144 14.42624-10.610285 6.02655-3.116457 12.791326-3.727429 19.699472-4.679086 16.740274-2.304343 30.720057 2.647543 46.436623 6.957029 14.857607 4.073142 29.731563 7.508914 44.672173 11.751771 16.408261 4.658971 32.648 9.128114 49.004699 14.205714 8.73925 2.712915 17.730027 4.378629 26.510779 6.982172 4.228143 1.252114 20.212583 9.101714 23.737712 6.523314-11.104847-5.210857-22.481342-9.960343-34.362146-13.105714-3.498718-.925257-5.733522.099314-5.603986-3.918515.071685-2.1912 2.534119-5.149257 3.420746-6.953257 2.122874-4.318285 4.5262-8.538514 6.6038-12.869371-7.531929 2.1384-27.777211 9.540457-33.452882 1.888228-5.939773-8.009257-.980949-23.712228 2.741627-31.554285 9.717685-20.471315 26.245421-37.554629 42.349336-52.986057 3.483627-3.336458 10.992919-7.693715 12.849176-11.942858.564675-1.292342-.664027-3.190628.609949-4.868914.757092-.998171 3.799292-1.6808 5.015417-2.756914 4.428105-3.919772 7.96078-12.167886 11.020587-17.307086 3.204434-5.381828 6.091946-11.209943 10.118868-16.038628 6.586193-7.896115 13.386183-16.266172 24.052118-18.112915 5.230471-.905143 10.786668-.4224 15.79957-2.228914 6.06302-2.184914 11.82421-5.626971 17.946339-7.889829-1.519214-3.122742-2.750431-8.088457-5.697051-8.429142-2.837207-.329372-6.998695 2.109485-10.245888 2.091885-4.742512-.0264-8.790814-.784457-13.367319-1.688343-5.065722-1.001942-6.734593-.819657-8.58079-6.314628-1.936746-5.756457-1.448786-12.441943-1.432437-18.4209144.007546-2.9216.587312-6.5484572.338302-9.416-.373516-4.3208-1.213611-4.4867429-4.6004-7.2348572-4.231916-3.4332571-9.448553-7.9765714-4.264614-13.9417143 2.800736-3.2233142 8.556895-.7165714 11.038193-4.18 2.526573-3.5275428 2.404583-12.3891428 3.174251-16.5326857-7.789742 3.8292572-4.933671-10.4858285-4.934929-13.9304-.001257-5.0122285-3.360379-14.0259428 1.475197-18.19588568 2.24738-1.936 3.916251-.3344 6.485583-1.44697143 2.931529-1.26971429 4.777725-4.59988572 7.896641-5.89097143 6.198844-2.56708571 12.528481.52422857 18.893332.01382857 7.300525-.58457143 14.471515-1.71348571 21.812285-.54182857 3.478596.55314286 4.942474 1.8744 7.885322 3.35531429 2.829661 1.42434285 5.700823 1.81405714 8.774464 2.73051428 2.735339.81588572 5.133634 1.22822857 6.981088 3.61177147 1.461363 1.8857142.866505 5.0574857 2.341702 6.6829714 1.455074 1.6016 4.333783 1.3690286 6.068051 3.2710857 1.665098 1.8253714 2.661139 4.8425143 3.526386 7.1141714 1.169593 3.0598857 1.306675 4.2089143 3.36541 6.6578286 1.794634 2.1371429 4.379058 3.8556571 5.876892 6.2932571 3.528902 5.7464 3.619451 14.0561143 2.492617 20.5203429-.382319 2.2012571-3.572919 7.8910857-3.073641 9.7642286.475383 1.7826285 3.467278 1.3137143 4.821743 2.4413714 1.17085.9742857 2.200847 5.3152 3.123945 5.5804571 1.994597.572 4.454516-3.3666285 5.966183-3.9574857 2.625926-1.0270857 3.725092-2.0805714 5.180166 1.7901715 1.077787 2.8725714-.42382 6.7709714-1.214867 9.5128-1.006102 3.4898285-2.117844 7.6924571-4.784014 10.3312-3.134007 3.1026285-5.642973 1.4067428-9.101447 3.0774857-5.182682 2.5042284-3.653407 10.3337144-10.030834 12.5714284-6.076854 2.132114-12.772461-4.576-17.369088-7.659771.952023 7.486285 4.536261 14.699771 2.815827 22.372114 13.977268-5.476114 27.801105-13.247771 43.033484-14.96 7.767106-.873714 15.613441-1.908343 22.945407 1.316229 8.582048 3.773942 13.840187 12.098742 19.649166 19.015542 10.917461 13.000115 22.119146 25.635658 32.597695 39.0544 9.610787 12.308686 17.713678 26.570972 28.292838 38.096458 10.726301 11.687657 18.821647 30.6504 17.647023 46.834857-.10564 1.4608-1.237505 4.779657-1.060179 6.354857.138339 1.206857 1.234989 2.7368 1.217592 3.709828-.059318 3.274858-1.142135 5.160572-4.263565 6.977143-5.41157 3.151657-13.475475 4.746972-19.591316 5.528915-8.125528 1.039657-18.077132 1.151542-26.206433.041485-8.3846-1.146514-15.754295-5.839428-23.464807-8.675543-6.763519-2.489142-13.555963-4.042971-20.662814-5.630742-3.920023-.876229-8.260095-3.301258-10.682284-.954172-2.224743 2.157257-2.686292 13.225143-3.204434 16.168114-5.622851 31.898743-12.304624 62.716343-18.223017 94.452915-6.706926 35.971885-11.293492 71.929943-15.958031 108.207314-4.239461 32.976114-5.625366 66.3256-6.573617 99.271543-.452746 15.715543-.518142 31.262628-.422563 46.992.054078 8.807543 4.457031 38.208343-8.599654 39.333486-7.672783.663771-13.811261-10.337486-15.867481-16.336572-3.088732-9.013714-4.697237-18.720114-5.190227-28.188914-.996041-19.168914-2.302715-38.351657-3.076156-57.528114-.83758-20.775543.22763-41.934515 1.935488-62.642172 1.719176-20.845943 6.050444-41.387657 7.378498-62.265028-3.98542 5.687314-5.260654 6.755885-11.89841 9.232457-6.945874 2.593485-13.627647 5.660914-20.636403 8.0784-2.384461.822171-6.10578 1.3376-8.060132 2.684-3.606875 2.484114-1.237506-.3344-2.389492 4.500571-1.229959 5.1656-1.461363 11.367086-1.788346 16.674743-1.535562 24.910286-8.436162 49.643314-11.619217 74.4216-.76841 5.982743.328241 31.379543-9.967952 23.375314-7.929339-6.163771-7.772136-25.525028-8.900227-34.594057-1.501607-12.088686-.665285-24.518057-.427594-36.679657.27039-13.8512.503051-28.378743 3.808095-41.903086-5.913362-1.012-14.138244 1.744915-20.090593 2.2088-5.153756.401029-10.289905.656229-15.414735.937829-12.221621.671314-24.810468 1.206857-37.238339.966743-2.262472-.044-17.043363-2.113257-18.932319-.445029-.613722.541829-.801109 7.994172-.915553 8.904343-.435139 3.424457-1.024966 6.845143-1.465135 10.250743-1.403512 10.8856-2.6712 22.574514-2.26876 33.456343z"/><path d="M688.546483 659.718355c9.327032 3.645135 19.226568 4.967895 28.632697 8.288628 8.409269 2.968666 16.218415 6.95958 24.498369 9.977285.484619-3.841287.741995-10.345697-.676709-13.965685-2.007528-5.126325-7.293139-5.252063-12.497144-7.077774-12.665379-4.443569-25.988636-5.380315-38.562364-10.572024 2.153164 4.144314 1.191459 9.631506-1.394849 13.34957m161.01027-13.404894c-20.144331.590967-39.39601 5.278467-59.249068 8.177978-9.660992 1.40952-19.330774 2.668154-29.000555 3.984627-3.721271.505466-10.503426-.090531-13.207751 3.130869-2.242305 2.669411.214689 11.776591-.780915 15.68829 4.071553.300513 11.300663-3.503052 15.719986-4.132997 6.881339-.97824 13.672282-2.34878 20.625184-2.78509 11.0119-.694072 21.83171-1.283782 32.824777-2.509724 11.17888-1.246061 21.996179-3.562149 33.264198-4.408363 5.477702-.41242 7.681086.614857 8.003747-5.167819.126804-2.260763.43691-6.045468-.197112-8.274797 1.01318-2.741081.11425-4.071386-2.696792-3.993428-1.785306-.201181-3.553035-.104363-5.305699.290454m-38.96161-18.455777c5.447569-.510495 10.917738-1.243546 16.379118-1.550346 1.107342-.062869 6.724402.275366 7.642165-.754426 1.298177-1.456042-.148148-6.783548-.386691-8.431969-.80979-5.605386-1.704955-8.864506-7.819189-8.877188-5.160063-.012466-10.502171 1.078937-15.642146 1.581888-23.333275 2.287168-46.548534 3.252834-69.624434 7.595813 1.404893 5.981342 2.999365 12.152547 1.31952 18.269685 11.069652.570849 23.222792-1.559147 34.041346-3.744468 11.057098-2.233101 22.789648-3.342107 34.090311-4.088989m-36.930228-56.317907c-8.336452.037721-17.147478 3.709261-25.373446 2.890709-.123038 1.530228 2.509724.260277 3.236652 1.692429 1.553041.003772 2.094157.510495 1.619582 1.522683.028876.6903-.323917 1.095176-1.059634 1.212112-.362836.032691-.725673.062869-1.087254.094303-1.590705.051552-1.851847 1.124095-.780914 3.221399-.459509 2.597741.229754 5.897098.330194 8.504897 14.78339-2.011803 29.144936-4.104078 44.032533-5.001845 7.028231-.423736 14.05144-.422479 21.070883-1.000872 7.723772-.636233 16.154385.728021 23.7049-.717962 4.036399-.773287 3.613299-.71922 3.319514-5.968768-.179535-3.188707-.112994-6.974669-2.709346-9.300816-4.336462-3.885294-14.210888-1.639619-19.39606-1.502565-15.617036.412419-31.49898 1.863432-46.907604 4.354296m8.533563 74.961033c22.33265-2.028149 44.497064-6.470461 66.956518-6.470461-1.588194-1.58681-5.047068-1.995457-7.023209-2.86179-2.253604-.985783-4.380403-3.08686-6.582532-3.94942-4.419324-1.730151-8.916487.673953-13.455083 1.712547-10.949125 2.507209-22.183246 2.592711-33.149948 5.05214-11.337072 2.541158-22.822291 4.884909-34.36903 6.177492-5.497789.614857-11.397335 1.862175-16.829838.409905-.440677-.315602-.883865-.631203-1.324542-.945548-.474575-2.021861-1.792839-2.561276-3.954792-1.619501-2.745756-.523069-6.242295.152143-9.006558.221298-.112064 1.103977 10.100089 4.566793 12.047354 5.424324 4.691764 2.06587 7.873175 3.578494 12.883834 2.693301 11.283086-1.992942 22.381614-4.371899 33.807826-5.844287m-78.56101-65.293063c.872566 3.402462 4.53734 1.854631 7.692385 2.229329 4.234767.501693 8.44819 1.962765 12.549875 3.064227 7.44882 2.001744 14.900151 3.975826 22.317584 6.091991-.292529-2.996329.370369-9.815083-1.212803-12.473178-1.661013-2.786347-9.536699-4.00726-13.203985-4.857247-9.24417-2.138798-19.118596-.921657-28.509659-.471516.165725 2.136283.288763 4.273824.366603 6.416394m88.797017 21.284875c8.770851-.74311 17.551745-1.320246 26.347706-1.629561 10.056472-.352065 2.747011-1.958993 2.534833-8.092477-13.217795 2.108621-26.55235 2.524813-39.728714 4.326634-10.916483 1.495021-23.920845 5.396661-35.055782 3.300614-5.251714-.988298-10.61391-1.369284-16.200839-1.927559-5.270545-.526841-10.24354-2.982498-15.450055-3.592325-5.844305-.685271-11.815414 2.600255-17.629586 3.467845-2.464526.368411-3.03703 2.039465-4.200869-.926687-1.206525-3.076801 2.249838-5.591555 3.610789-7.431097 1.58945-2.148857.929062 1.340364 1.811671-2.015575.247332-.940518-.4231-3.303129-.546138-4.316574-.311361-2.561277-1.11613-5.34008-1.241679-7.896327-.115505-2.347522-.135593-5.931046 2.413051-7.301587 1.555552-.836155 2.657872.3835 4.013801.147113 10.585033-1.840799 23.035724-1.991685 33.77016-.215011 11.637134 1.925044 21.65343-3.172362 33.123584-5.239489 13.455082-2.424223 27.052035-2.787605 40.623878-3.812367 11.604491-.875134 32.807201-5.416779 37.22778 9.405179 1.251723 4.199638 3.075949 15.761218-.292529 19.334683-4.419324 4.69253-14.65282 3.194994-20.367809 4.41465.854988 2.431767 3.399866 4.085217 2.519768 6.980956 8.008768.37847 9.42496 7.942849 10.679195 15.005535 1.298176 7.306616-1.234147 10.211157 5.748887 14.015979 9.732555 5.302358 20.042637 10.657526 19.851802 23.286618-.095417 6.349753-.806024 15.925935-7.325782 19.220262-6.377887 3.222657-16.763298 2.678213-23.792784 3.847573-13.612019 2.267051-27.271747 4.926403-40.966628 6.286884-14.582512 1.449756-29.407334 2.639234-44.013701 3.286783-7.958548.35458-14.83361 1.556633-22.519717-1.12158-7.556793-2.632947-14.949116-4.555476-22.745706-6.510697-7.697408-1.927559-31.260437-4.525299-24.394164-17.688777 1.098553-2.106106 4.853723-3.780932 5.460124-5.772617.978027-3.212598-2.326422-5.719807-2.188318-8.62309.252353-5.31116 6.244805-5.977569 10.382899-5.977569-7.092261-4.436026 2.405518-9.688089 2.349021-13.453932-.099183-6.635178-8.351517-10.941693-8.818559-16.504328-1.134963-13.535661 41.804039.558275 48.412936 3.486706-5.087244 7.543003-28.686683 1.01596-35.716169-.128253.959194 2.518526 1.875701 4.783062 2.153164 7.361942.224733 2.101076-.577525 4.502666.156937 6.617574 1.160072 3.344622 1.119896 2.704617 5.226603 3.616215 3.038285.673954 6.042672 1.453528 9.070913 2.167718 4.651589 1.09769 11.968583 4.042466 16.577485 3.881522 4.042677-.140826 3.244185 1.112779 3.984924-3.377314.399246-2.412906-.281229-4.977955-.688008-7.341823-.848711-4.954065-2.09039-9.642823 2.236027-13.197427 4.125539-3.389888 12.82106-5.003102 17.880684-6.198868 11.230355-2.653065 24.19203-3.303129 35.714914-3.166074"/><path d="M845.874747 517.935953c-12.196801-2.043617-24.588801-2.546952-36.929168-1.92756.668714 3.054072 1.337429 6.106882 2.007403 9.15843 11.560829-2.97712 23.289152-4.721763 34.921765-7.23087zm-99.176301 23.688292c-4.891313-.358264-1.488551 1.829163-.280834 5.030829 1.484773 3.933331 1.166157 8.906131 1.507441 13.046347 14.311249-5.457213 30.962369-8.65131 46.177831-10.488042 7.216074-.870429 14.536673-1.120205 21.793045-1.492345 2.144673-.10975 9.890932.788433 11.460082-.654714 1.164898-1.073529.34758-6.99371-.771982-8.300616-6.090214-7.098414-29.632496-.968825-38.149477-.333033-13.964928 1.043253-27.674208 3.538484-41.736106 3.191574zm20.325903-19.024557c12.671576 1.217339 24.907417 1.101282 37.580252 2.999827-.960884-8.054625.187643-10.110856-8.950198-10.538502-8.142955-.379709-16.260722-.687513-24.365896-.683728-18.226567.010091-36.410316-.33808-54.657032-.33808v8.18582c16.875284-1.728244 33.483587 1.392687 50.392874.374663zm-60.93489 30.102977c7.99687-.03406 15.555486 2.983428 23.553616 3.765553 4.786788.468013 3.283124 1.062176 6.604029 3.465318 5.172149 3.744107 6.66196 1.749689 6.013394-3.337907-2.197565-17.209271-23.986831-13.350367-36.542547-14.306578.824874 4.103632-1.071707 7.584088-3.866203 10.413614h4.237711zm86.441757-22.095028c-11.502899.186701-23.019651.840154-34.441952.601732-5.11296-.107227-11.737139-1.120205-16.748091-.248514-3.671004.638315-6.741298 2.507846-10.767439 3.202928 5.913906 3.185266 8.912417 1.033161 15.129826.307803 6.212372-.722834 12.516676-.708958 18.754235-1.086144 10.243549-.620654 21.16211-3.074255 31.254538-2.406926.183865-1.421701-.875248-1.545328-3.181117-.370879zm-91.236101 37.272035c-5.277934-.011353 1.983476-6.013531 2.936803-6.608955-5.843382 0-7.257631-3.504424-5.565065-9.134462 1.595595-5.303311 2.775606-3.679771-1.237941-8.096254-3.02118-3.325292-3.478324-5.775109.083117-9.492725 3.624408-3.781952 10.963898-2.712207 14.175239-5.834399 5.466837-5.313404-1.58804-15.897319 5.986948-19.968153 5.120516-2.750052 13.374293-2.409449 19.027513-2.990997 5.464318-.561364 11.120057-.669852 16.620896-.74428 11.990268-.163994 24.445236 1.846824 36.38261 2.953152 4.352313.402416 9.244886 2.160935 13.532971 2.16472 4.372462.005046 8.952717-.970087 13.467485-.857814 5.248969.132456 10.305258-.254822 15.717942.606777 4.147039.661022 13.830178 1.007932 16.999961 4.091018 10.562165 10.273588-14.485039 14.991568-18.794534 16.145833 4.386315 4.805022 4.203709 11.156632 3.542551 17.205485 2.088001 0 5.687222-.908274 6.767744 1.433055 1.342467 2.907738-3.625667 3.663372-4.80064 4.002713-6.75767 1.951528-14.666386 1.416655-21.630589 2.125614-13.923369 1.416655-27.677986 2.234102-41.45653 4.871881-6.714852 1.28546-13.389405 2.876201-20.099219 4.127601-1.158602.216976-2.3235.389801-3.493436.520996-1.795833-.153902-2.376393.97261-1.74294 3.385844-1.862578.909535-8.806632-1.357365-10.953823-1.704276-12.292511-1.994418-23.289152-1.165618-35.467063 1.797626zM949.514454 687.245078c-7.92853 6.239209-15.298447 12.126507-23.884758 17.547931 6.069417-.189105 26.254781-9.868519 23.884758-17.547931m-3.096847-10.169083c-4.327049-3.718228-8.625225-3.337514-13.981627-4.464629-4.932108-1.038198-9.724877-2.825302-14.646942-4.015035-3.862584-.933001-7.686255-2.19537-11.535031-3.077024-5.435486-1.246089-5.971503.125235-10.970142 2.973079-17.726214 10.102709-37.562601 17.052001-56.234062 25.251137 5.481933 4.826558 17.814085 5.034448 24.66556 6.573587 5.002405 1.122105 9.762535 2.657487 14.554048 4.434572 4.461367 1.656859 11.649265 5.466508 16.354161 5.592996 3.971797.107702 7.200451-3.800883 10.619912-5.906084 4.49777-2.770199 8.975456-5.491556 13.508376-8.192875 9.593069-5.715726 18.562249-12.720121 27.665747-19.169724m-80.110032 40.920542c-2.046153-1.968694-8.205953-1.882282-10.771803-2.48341-5.053873-1.180966-10.033682-2.40827-15.155342-3.294934-8.311398-1.437698-21.440672-2.081406-22.343238-12.864141-.75193-8.960565 10.075107-11.087056 16.408139-14.122753 9.522771-4.567321 19.23886-8.78148 29.003906-12.809038 9.154966-3.774583 18.44425-6.966824 27.766172-10.229196 1.817687-.636194 3.29393-.54853 4.777705-2.003761 1.171203-1.148405.809674-3.377588 2.0926-4.57734 2.938677-2.747656 6.75105-1.302444 10.282233-.597371 8.018911 1.599252 16.345374 3.699443 23.990203 6.666261 7.944849 3.083286 15.051151 3.726994 16.95922 12.733896 4.062179-1.906077 7.1176-2.182846 6.631796 3.417664-.14185 1.645588-1.336904 3.435197-1.624369 5.132131-.421784 2.502196.317593 5.139645-.100425 7.648103-1.520179 9.120866-13.818438 15.877296-21.439417 19.459017-9.39724 4.415787-21.522266 10.940532-32.014136 11.802149-11.179779.919225-23.363805-3.471515-34.463244-3.877277"/><path d="M724 566.676818c-3.332901.021-6.6684.042-10 .063 3.326403-.625 6.660602-.632 10-.063M529 214c-.999641 1.665873-1.999282 3.331746-3 5 .340762-2.14813 1.103163-3.989045 3-5M724 614.4735c2.003971.018 4.006751.034 6 .053-2.007546-.016-4.003178-.034-6-.053M770 505.6895c-2.334659-.126-4.666667-.253-7-.379 2.333333.126 4.665341.253 7 .379M730 566.726296c-2.000837-.019-4.001674-.037-6-.056 2.007112-.547 4.007949-.528 6 .056M809.5845 283c-.056-2.000893-.112-4.001787-.169-6 .058 2.002234.113 4.000447.169 6M469.5615 585c-.041-1.667478-.082-3.334956-.123-5 .042 1.668696.082 3.333739.123 5M524 503.4975c1.337983.001 2.67343.002 4 .005-1.339252 0-2.669626-.003-4-.005M703 144.319c-1.66743.121-3.333715.241-5 .362 1.667429-.121 3.333714-.241 5-.362M829 509.5195c-2-.013-4.001365-.026-6-.039 1.998635.013 4 .026 6 .039M660.5745 633c-.05-1.335338-.101-2.671879-.149-4 .049 1.336542.099 2.669474.149 4M662.554 582c-.036-1.334103-.072-2.669362-.108-4 .037 1.334104.073 2.667052.108 4M628.428 605c.048 1.335346.097 2.670692.144 4-.048-1.336553-.096-2.667069-.144-4M532 502.5205c1.003815-.014 2.006486-.027 3-.041-1.006105.014-2.003053.027-3 .041M822 554.565c1.00257-.043 2.005141-.087 3-.13-1.005876.044-2.00404.087-3 .13M630.4145 637c.057 1.334736.114 2.670873.171 4-.057-1.338941-.114-2.66947-.171-4M737.601 630c-.067 1.336006-.135 2.670675-.202 4 .067-1.336005.135-2.668002.202-4M622.3445 34.14675029c-1.4125-.18-2.82625-.3585-4.24-.5385 1.40125.324 2.93625-.8775 4.24.5385M561.5575 547c-.038 1.335143-.076 2.670285-.115 4 .037-1.337856.076-2.668928.115-4M475.603 669c-.068-1.334203-.138-2.668407-.206-4 .069 1.334204.138 2.667102.206 4M799 556.531c1.005104-.021 2.007424-.043 3-.062-1.006497.022-2.003249.042-3 .062M459.4895 314c.008 1.335605.015 2.67121.021 4-.008-1.336967-.014-2.668484-.021-4M438.508 614c-.004 1.335214-.009 2.671837-.016 4 .004-1.336623.01-2.669016.016-4M687.742759 606c-.036 1.33474-.071 2.670886-.109 4-.548-1.371308-.486-2.700422.109-4M501 504.5h3-3M661.516 600c-.011-1.334737-.021-2.669473-.032-4 .011 1.337544.021 2.66807.032 4M866 718.4585c1.004037.027 2.008075.055 3 .083-1.008076-.027-2.004038-.055-3-.083M830 591.5175c.668511-.012 1.339236-.023 2-.035-.672939.012-1.335916.023-2 .035M805 594.502c.670786-.002 1.339325-.003 2-.004-.670787.002-1.335956.003-2 .004M415.56 601c-.04-1.000386-.081-2.001929-.12-3 .041 1.001544.081 2.00193.12 3M825 600.241111c-.868511.879-1.98598.36-3 .416 1.000378-.139 2.000757-.277 3-.416M706 568.246585c-1.320253.624-2.65452.71-4 .043 1.334267-.014 2.667133-.028 4-.043M793 602.517c-1.333799-.011-2.667597-.022-4-.034 1.333798.012 2.667596.023 4 .034M737 567.6815c-1.333334-.121-2.668045-.242-4-.363 1.331955.121 2.666666.242 4 .363M431.5395 563c-.025 1.002611-.052 2.003917-.079 3 .025-1.003916.052-2.002611.079-3M661.423 617c.052-1.002198.103-2.004395.154-3-.051 1.003517-.102 2.001759-.154 3M799 559.332c-1.332882.112-2.667119.224-4 .336 1.334237-.112 2.667118-.224 4-.336M469.5415 556c-.027-1.001795-.055-2.00359-.083-3 .027 1.004489.056 2.002244.083 3M636.618 479c-.079 1.002012-.158 2.002817-.236 3 .079-1.002012.158-2.000402.236-3M819 509.260433c-1.33556.692-2.668448.605-4-.007 1.332888.002 2.667111.005 4 .007M660.5885 648c-.06-1.001651-.118-2.002063-.177-3 .059 1.002889.117 2.000826.177 3M660.563 656c-.042-1.00078-.085-2.00156-.126-3 .043 1.001951.085 2.00039.126 3M471.479 524c.015-1.001335.028-2.004005.042-3-.015 1.004006-.028 2.001335-.042 3M756 683.5275c.669269-.019 1.338538-.038 2-.055-.672616.02-1.336308.037-2 .055M433.581 692c-.054-1.001222-.108-2.002445-.162-3 .055 1.001223.108 2.001223.162 3M650 700.4795c.670109.014 1.340218.026 2 .041-.672404-.013-1.335629-.027-2-.041M795 508.6515c-1.332881-.101-2.66712-.202-4-.303 1.33288.101 2.667119.202 4 .303M802 509.7075l-3-.415 3 .415zM650.416 615c.057-3.001307.112-6.001307.168-9-.057 3.001307-.112 6-.168 9M572.448 505c.034 2.334912.068 4.669824.104 7-.034-2.33728-.069-4.66864-.104-7M400 651.469c-1.669129.02-3.340719.04-5 .062 1.674052-.02 3.337026-.041 5-.062M537 452.5385c-1.671256-.026-3.341135-.053-5-.077 1.675385.027 3.338381.052 5 .077M494 491.5025c1.667835-.001 3.334502-.003 5-.005-1.666667.001-3.333334.003-5 .005M516 451.467c-1.338015.022-2.674753.045-4 .066 1.341844-.022 2.670922-.044 4-.066M408 651.5105c-1.336758-.007-2.673516-.014-4-.021 1.341894.008 2.670947.014 4 .021M588 140.6735c1.665895-.116 3.334104-.231 5-.347-1.667053.116-3.334105.231-5 .347M610.407 258c.062-1.667124.124-3.334248.186-5-.063 1.668496-.124 3.334248-.186 5M570 273.499c-1.003421 0-2.006842.001-3 .002 1.006841 0 2.00342-.001 3-.002M485 448.4835c-1.003406.011-2.006811.022-3 .033 1.00681-.01 2.003405-.021 3-.033M462 489.3375c1.333742.108 2.667484.217 4 .325-1.333743-.108-2.666258-.217-4-.325M459.4685 540c.021-1.334715.043-2.668048.063-4-.021 1.336097-.042 2.668049-.063 4M574 486.696c1.33253-.131 2.667469-.261 4-.392-1.333735.131-2.66747.261-4 .392M665.381 463c.08-1.334235.159-2.669824.238-4-.079 1.335589-.159 2.668471-.238 4M683 278.6555c1.333722-.104 2.666277-.208 4-.311-1.333723.103-2.666278.207-4 .311M547 453.5145c-1.002798-.01-2.006993-.02-3-.029 1.006993.009 2.004195.019 3 .029M459.5735 615c-.05-1.001799-.099-2.002519-.147-3 .048 1.001799.097 2.00144.147 3M571.692363 564c2.18552 5.419504.958266 1.582132 1.014305 2.83312-1.861895.249981-2.200931-.694753-1.014305-2.83312M480 448.5545c-1.002289-.036-2.007323-.072-3-.109 1.009153.036 2.003203.072 3 .109M684.4055 347c.063-1.333766.127-2.667532.189-4-.063 1.335065-.127 2.667533-.189 4M459.505 605c-.003-1.334267-.007-2.667134-.01-4 .003 1.337071.006 2.668536.01 4M459.3955 575c.069-1.000804.14-2.001607.209-3-.07 1.00201-.14 2.001608-.209 3M667.36 444c.093-1.000807.187-2.001615.28-3-.093 1.00202-.187 2.001616-.28 3M446.366 578c.089 1.001981.179 2.003962.268 3-.09-1.000792-.179-2.000396-.268-3M444.352 570c.099 1.000802.197 2.002807.296 3-.099-1.003207-.197-2.001604-.296-3M644.388 433c.075-1.000385.149-2.000771.224-3-.076 1.001542-.15 2.000771-.224 3M133.9999995 568.6575c1.3323983-.105 2.6661992-.211 4-.315-1.3366059.105-2.6690042.21-4 .315M635.5575 593c-.039 1.002158-.078 2.005611-.115 3 .039-1.004747.077-2.001726.115-3M651.3885 596c.074-1.000397.148-2.001985.223-3-.075 1.001588-.149 2.000794-.223 3M645.342 429c.105-1.001199.212-2.001199.316-3-.105 1.002398-.211 2.001199-.316 3M141.9999995 567.6965c1.3338043-.131 2.6676086-.262 4-.393-1.3323914.131-2.6676086.262-4 .393M566 452.489c-.669365.007-1.339885.015-2 .022.672832-.007 1.336416-.015 2-.022M459.505 566c-.003-1.002067-.007-2.002893-.01-3 .003 1.003307.007 2.000414.01 3M653.578014 564c-.355-1.033926-.529-2.052958.156-3-.052 1.001655-.104 2.000828-.156 3M636.5425 545c-.028 1.000858-.058 2.003002-.085 3 .029-1.00343.057-2.001715.085-3M637.4065 644c.062 1.000387.125 2.003091.187 3-.062-1.001545-.125-2.001932-.187-3M711 280.2865c1.001118.143 2.001118.286 3 .427-1.001119-.143-2-.285-3-.427M707 280.379629c1.341649.081 2.816354-.564 4 .381l-4-.381zM536 491.51c1.333333-.006 2.668082-.013 4-.02-1.333334.007-2.666667.014-4 .02M566 279.3265l4 .347c-1.335167-.116-2.666209-.231-4-.347M500 491.238744c1.334699.006 2.666666.012 4 .018-1.338798.644-2.672132.707-4-.018M463.6145 659c-.076-1.003063-.152-2.003501-.229-3 .077 1.003064.153 2.000876.229 3M609.478 281c.015-1.001732.029-2.002165.044-3-.015 1.003032-.029 2.002166-.044 3M525 491.6615c1.334244-.107 2.667122-.215 4-.323-1.334245.108-2.665756.216-4 .323M638.4665 668c.022 1.001236.045 2.002472.067 3-.022-1.003708-.045-2.001236-.067-3M642 255.6905c1.333333-.127 2.666666-.254 4-.381-1.333334.127-2.666667.254-4 .381M659.363 511c.092-1.000786.184-2.001573.274-3-.091 1.001967-.183 2.000394-.274 3M705.3855 244c.077-1.001571.153-2.001964.229-3-.076 1.001571-.153 2.000786-.229 3M610.471 158c.019 1.0008.037 2.0028.058 3-.019-1.0032-.038-2.0016-.058-3M575 139.3335c1.333333.111 2.668074.223 4 .333-1.333334-.111-2.666667-.222-4-.333M375 707.696c1.3338-.131 2.666199-.261 4-.392-1.333801.131-2.6662.262-4 .392M577 129.5010003c-.669403-.001-1.339977-.002-2-.002.671746.002 1.336459.002 2 .002M331 720.720014c1.334739-.688 2.666666-.492 4 .005-1.333334-.002-2.668074-.003-4-.005M850 662.679c2.333737-.12 4.667474-.239 7-.358-2.332526.119-4.666263.239-7 .358M850 645.454c-1.337556.03-2.673845.061-4 .092 1.340088-.03 2.670044-.062 4-.092M830 625.620847c1.666666-.127 3.333333-.254 5-.381-1.554589.977-3.333334.254-5 .381M811 627.681c1.667098-.121 3.332901-.241 5-.362-1.665804.121-3.332902.241-5 .362M783 645.656c1.333333-.104 2.666666-.208 4-.312-1.333334.104-2.666667.208-4 .312M790 645.6585c1.333333-.105 2.666666-.212 4-.317-1.333334.105-2.666667.211-4 .317M795 644.677c1.332944-.118 2.665889-.235 4-.354-1.332945.118-2.66589.236-4 .354M802 610.491c-1.003155.007-2.00631.014-3 .018 1.00721-.008 2.003605-.013 3-.018M827 665.582107c1.333333-.112 2.666666-.226 4-.338-1.24421.874-2.65025.371-4 .338M789 585.691c1.33254-.127 2.66627-.255 4-.382-1.33373.127-2.66746.255-4 .382M784 569.5015c-1.004133-.001-2.006888-.002-3-.003 1.008264.001 2.004132.002 3 .003M774 571.4955c-.669319.004-1.338637.007-2 .009.672727-.003 1.336363-.006 2-.009M750 574.281365c-.336183.822-2.102695.717-1.995304-.127.664583.042 1.329165.085 1.995304.127M703.439 578c.041 1 .082 2.002323.122 3-.041-1.002323-.081-2.002323-.122-3M840 583.300599c.999637-.017 2.000362-.033 3-.05-.987673.706-1.989486.607-3 .05M802 568.486c-.669369.01-1.338738.02-2 .028.672843-.009 1.336421-.018 2-.028M776 631.6865c1.333798-.125 2.667596-.249 4-.373-1.333799.124-2.666202.249-4 .373M760 633.6745l4-.349-4 .349zM838 663.688c1.332874-.126 2.667125-.251 4-.376-1.332875.125-2.667126.25-4 .376M790 669.708528c1.335684-.488 2.671368-.655 4 .012-1.334274-.004-2.667137-.008-4-.012M787.880037 531.867786l-1.880037-.65c2.333331-.029 4.666663-.058 7-.086.005344.001-4.851196.757-5.119963.736M770 514.5015c-1.67075-.001-3.3415-.002-5-.003 1.673199.002 3.336599.003 5 .003M707 552.726994c1.663557-.666 3.330613-.536 5-.018-1.667056.006-3.332945.012-5 .018M808 536.482c-1.003437.012-2.006873.024-3 .036 1.006872-.013 2.003436-.024 3-.036M787 523.3365c1.667521.109 3.335042.218 5 .327-1.66624-.11-3.333761-.218-5-.327M766 533.677c1.667096-.118 3.334192-.235 5-.354-1.665808.119-3.332904.236-5 .354M779 531.6695c1.332938-.113 2.665877-.226 4-.339-1.334123.113-2.667062.226-4 .339M768 522.336c1.334113.109 2.667056.219 4 .328-1.334114-.11-2.667057-.219-4-.328M749 541.521c-.669763-.014-1.338364-.028-2-.042.672083.014 1.336041.028 2 .042M770 531.5625c-.670109-.042-1.339071-.083-2-.125.672403.041 1.335628.083 2 .125M757 531.5275c-.670092-.019-1.340183-.038-2-.055.672374.019 1.335616.037 2 .055M793 530.597473c0 .259 3.011818-1.055 2.999965.167l-2.999965-.167zM782 514.4985c-.670017.001-1.338917.002-2 .003.673366-.001 1.335566-.002 2-.003M427 467.076474c1.082877-4.419283.787874-7.877201 4.6445-5.05311 2.116588 1.550187 5.606259 9.412386 5.341236 12.075208-.326183 3.285397-1.823983 4.594305-4.91552 3.549179-3.554428-1.203896-4.964687-7.265878-5.070216-10.571277M621.830057 440.246955c8.955566 0 5.048225 9.531002-2.417232 9.744363-3.430108.098376-8.365239-.578759-7.25294-5.170505.594055-2.450464 9.296092-5.754374 9.670172-4.573858M525.774274 459c6.464519 3.127799-2.630938 16.863473-8.505481 13.462856-7.522188-4.352277 5.84681-11.503178 8.505481-13.462856M510.043892 472c2.116315 2.308148 11.652111 10.133489 6.395975 13.279562-6.464044 3.869617-11.383549-8.903591-6.395975-13.279562M401.678284 466c-2.103196-4.067188.790589-14.709537 7.212397-12.764968 6.462157 1.958558-3.656635 11.685218-7.212397 12.764968M544.340269 468.343626c4.192462-1.687883 3.394211 3.306847 4.028078 4.917039.718031 1.830733 4.409449 6.287896 3.483636 8.236417-1.374255 2.890828-4.659314 1.047565-6.442557-.828278-3.127251-3.290557-2.905003-8.56848-1.069157-12.325178M480.440282 472.972726c-3.49477 0-11.83687-10.075883-6.935491-11.766343 6.08388-2.097904 11.171137 12.506926 6.935491 11.766343M601.208359 457c3.200266.789358 7.436362 9.851227 2.613085 10.90209-5.340556 1.164665-6.293773-8.396001-2.613085-10.90209M581.803271 474c-2.510822-4.83403-3.129239-15.181956 2.999803-6.876214 1.327919 1.79919 2.697785 1.071501 2.015849 4.03913C586.223277 473.754421 583.844288 474 581.803271 474M449.584912 449c2.558423 3.850771 1.802897 15.92649-3.543062 8.784451-2.273397-3.036011-.707794-8.640063 3.543062-8.784451M578.188269 86.0978781c4.963621-1.2815104 6.153864 10.4214078 3.25906 11.7114453-4.052982 1.8053216-3.545077-9.753853-3.25906-11.7114453M892.15604 680.64913c-4.60699-.26946-11.060626-1.525643-4.082127-4.795621 4.42733-2.071074 11.010577-2.215567 15.685581-1.365529 3.222327.585784 8.057741 3.256961 3.140197 6.719598-2.878407 2.025513-11.244136-.459515-14.743651-.558448M886.992588 689c-1.332238-.150361-2.663101-.300722-3.992588-.449466 1.068264-1.938527 4.17132-2.345958 3.992588.449466"/><path d="M893 680.4565c1.33677.029 2.673541.059 4 .087-1.340639-.029-2.670964-.058-4-.087"/></g></g></svg>